<?xml version="1.0" standalone="no"?>
<!DOCTYPE svg PUBLIC "-//W3C//DTD SVG 20010904//EN"
 "http://www.w3.org/TR/2001/REC-SVG-20010904/DTD/svg10.dtd">
<svg version="1.0" xmlns="http://www.w3.org/2000/svg"
 width="512.000000pt" height="512.000000pt" viewBox="0 0 512.000000 512.000000"
 preserveAspectRatio="xMidYMid meet">
<metadata>
Created by potrace 1.14, written by Peter Selinger 2001-2017
</metadata>
<g transform="translate(0.000000,512.000000) scale(0.100000,-0.100000)"
fill="#000000" stroke="none">
<path d="M12 4178 l3 -101 86 -3 c188 -6 284 -65 319 -195 9 -33 12 -364 13
-1319 0 -1414 3 -1349 -65 -1426 -61 -70 -122 -86 -340 -93 -16 -1 -18 -13
-18 -101 l0 -100 650 0 650 0 0 100 0 100 -27 1 c-161 3 -243 26 -299 83 -74
73 -77 99 -78 551 l-1 390 35 39 c19 21 40 44 45 50 6 6 62 70 125 141 161
184 158 181 168 170 5 -6 121 -185 257 -400 427 -669 555 -868 607 -938 100
-135 225 -220 370 -251 40 -9 87 -19 103 -23 17 -4 579 -8 1250 -10 l1220 -4
1 98 c1 96 9 383 20 753 l6 186 -109 -2 c-59 -1 -111 -2 -114 -3 -3 0 -11 -43
-17 -94 -7 -50 -14 -101 -16 -112 -2 -11 -7 -47 -10 -80 -31 -267 -119 -433
-256 -481 -51 -18 -88 -19 -535 -19 l-480 0 0 1364 c0 1040 3 1378 12 1424 28
138 115 193 318 202 44 2 83 4 87 4 4 1 6 46 6 100 l-2 100 -1080 -2 -1081 -2
0 -95 0 -95 63 -7 c166 -18 193 -63 132 -215 -42 -106 -107 -200 -346 -509
-115 -148 -280 -361 -367 -474 -88 -113 -170 -218 -182 -235 -13 -16 -65 -84
-116 -150 -50 -66 -97 -126 -103 -132 -8 -10 -11 173 -11 735 1 692 2 751 19
800 41 122 125 171 306 176 l75 3 3 101 3 100 -651 0 -651 0 3 -100z m2890
-118 c64 -17 121 -54 150 -97 57 -83 56 -40 54 -1420 -2 -1420 2 -1332 -74
-1412 -40 -42 -103 -66 -147 -55 -40 10 -124 70 -179 128 -77 81 -124 148
-635 913 l-482 723 88 107 c48 60 110 135 138 169 27 33 64 78 80 99 17 21 62
77 100 124 39 47 134 165 211 261 211 262 324 372 446 434 37 19 65 36 63 38
-9 8 147 -2 187 -12z"/>
</g>
</svg>
