<?xml version="1.0" encoding="UTF-8" standalone="no"?>
<svg
   width="250"
   zoomAndPan="magnify"
   viewBox="0 0 187.5 187.5"
   height="250"
   preserveAspectRatio="xMidYMid"
   version="1.0"
   id="svg72"
   sodipodi:docname="Full Logo - Light BG.svg"
   inkscape:version="1.3 (0e150ed6c4, 2023-07-21)"
   xmlns:inkscape="http://www.inkscape.org/namespaces/inkscape"
   xmlns:sodipodi="http://sodipodi.sourceforge.net/DTD/sodipodi-0.dtd"
   xmlns="http://www.w3.org/2000/svg"
   xmlns:svg="http://www.w3.org/2000/svg">
  <sodipodi:namedview
     id="namedview72"
     pagecolor="#ffffff"
     bordercolor="#000000"
     borderopacity="0.25"
     inkscape:showpageshadow="2"
     inkscape:pageopacity="0.0"
     inkscape:pagecheckerboard="0"
     inkscape:deskcolor="#d1d1d1"
     inkscape:zoom="1.7210979"
     inkscape:cx="118.23848"
     inkscape:cy="109.52311"
     inkscape:window-width="2560"
     inkscape:window-height="1494"
     inkscape:window-x="-11"
     inkscape:window-y="-11"
     inkscape:window-maximized="1"
     inkscape:current-layer="svg72" />
  <defs
     id="defs9">
    <g
       id="g1" />
    <clipPath
       id="b83081eb72">
      <path
         d="m 160,124 h 40 v 54 h -40 z m 0,0"
         clip-rule="nonzero"
         id="path1" />
    </clipPath>
    <clipPath
       id="8272e82657">
      <path
         d="m 187.89453,124.60547 12.32813,7.4414 -27.63672,45.79297 -12.33203,-7.4414 z m 0,0"
         clip-rule="nonzero"
         id="path2" />
    </clipPath>
    <clipPath
       id="912b945387">
      <path
         d="m 187.89453,124.60547 12.07422,7.28515 -27.28906,45.21875 -12.07422,-7.28906 z m 0,0"
         clip-rule="nonzero"
         id="path3" />
    </clipPath>
    <clipPath
       id="b487080579">
      <path
         d="m 161,124 h 32 v 35 h -32 z m 0,0"
         clip-rule="nonzero"
         id="path4" />
    </clipPath>
    <clipPath
       id="4a22398c33">
      <path
         d="m 176.32812,124.60547 17.02735,10.27734 -14.53125,24.07031 -17.02344,-10.27343 z m 0,0"
         clip-rule="nonzero"
         id="path5" />
    </clipPath>
    <clipPath
       id="1cd17d2607">
      <path
         d="m 176.32812,124.60547 16.45313,9.92969 -14.46484,23.96484 -16.45313,-9.92969 z m 0,0"
         clip-rule="nonzero"
         id="path6" />
    </clipPath>
    <clipPath
       id="a812a3649f">
      <path
         d="m 181,133 h 26 v 26 h -26 z m 0,0"
         clip-rule="nonzero"
         id="path7" />
    </clipPath>
    <clipPath
       id="ec9be1f5a6">
      <path
         d="m 190.14844,133.59375 17.02343,10.27734 -9.21093,15.26563 -17.02735,-10.27735 z m 0,0"
         clip-rule="nonzero"
         id="path8" />
    </clipPath>
    <clipPath
       id="aa9e947918">
      <path
         d="m 190.14844,133.59375 16.45312,9.93359 -9.03906,14.97266 -16.45313,-9.92969 z m 0,0"
         clip-rule="nonzero"
         id="path9" />
    </clipPath>
  </defs>
  <g
     fill="#3d3b3a"
     fill-opacity="1"
     id="g33"
     transform="translate(37.5,37.5)">
    <g
       transform="translate(236.8855,238.40114)"
       id="g32">
      <g
         id="g31" />
    </g>
  </g>
  <g
     fill="#3d3b3a"
     fill-opacity="1"
     id="g12"
     transform="translate(-93.74024,-88.43499)">
    <g
       transform="translate(106.3306,238.40114)"
       id="g11">
      <g
         id="g10">
        <path
           d="m 9.375,0 -3.859375,-5.1875 -2,2.203125 V 0 h -1.96875 v -11.734375 h 1.96875 v 6.0625 l 5.609375,-6.0625 h 2.328125 L 6.90625,-6.71875 11.75,0 Z m 0,0"
           id="path10" />
      </g>
    </g>
  </g>
  <g
     fill="#3d3b3a"
     fill-opacity="1"
     id="g15"
     transform="translate(-93.74024,-88.43499)">
    <g
       transform="translate(125.08194,238.40114)"
       id="g14">
      <g
         id="g13">
        <path
           d="m 9.921875,-9.953125 h -6.40625 v 3.15625 H 9.25 v 1.78125 H 3.515625 V -1.78125 H 10.125 V 0 H 1.546875 v -11.734375 h 8.375 z m 0,0"
           id="path12" />
      </g>
    </g>
  </g>
  <g
     fill="#3d3b3a"
     fill-opacity="1"
     id="g18"
     transform="translate(-93.74024,-88.43499)">
    <g
       transform="translate(142.79343,238.40114)"
       id="g17">
      <g
         id="g16">
        <path
           d="M 11.71875,0 H 9.78125 L 3.515625,-8.421875 V 0 h -1.96875 v -11.734375 h 1.9375 l 6.296875,8.4375 v -8.4375 h 1.9375 z m 0,0"
           id="path15" />
      </g>
    </g>
  </g>
  <g
     fill="#3d3b3a"
     fill-opacity="1"
     id="g21"
     transform="translate(-93.74024,-88.43499)">
    <g
       transform="translate(162.78585,238.40114)"
       id="g20">
      <g
         id="g19">
        <path
           d="M 11.71875,0 H 9.78125 L 3.515625,-8.421875 V 0 h -1.96875 v -11.734375 h 1.9375 l 6.296875,8.4375 v -8.4375 h 1.9375 z m 0,0"
           id="path18" />
      </g>
    </g>
  </g>
  <g
     fill="#3d3b3a"
     fill-opacity="1"
     id="g24"
     transform="translate(-93.74024,-88.43499)">
    <g
       transform="translate(182.77826,238.40114)"
       id="g23">
      <g
         id="g22">
        <path
           d="m 9.921875,-9.953125 h -6.40625 v 3.15625 H 9.25 v 1.78125 H 3.515625 V -1.78125 H 10.125 V 0 H 1.546875 v -11.734375 h 8.375 z m 0,0"
           id="path21" />
      </g>
    </g>
  </g>
  <g
     fill="#3d3b3a"
     fill-opacity="1"
     id="g27"
     transform="translate(-93.74024,-88.43499)">
    <g
       transform="translate(200.48976,238.40114)"
       id="g26">
      <g
         id="g25">
        <path
           d="M 9.5625,-9.953125 H 5.828125 V 0 H 3.859375 V -9.953125 H 0.15625 v -1.78125 H 9.5625 Z m 0,0"
           id="path24" />
      </g>
    </g>
  </g>
  <g
     fill="#3d3b3a"
     fill-opacity="1"
     id="g30"
     transform="translate(-93.74024,-88.43499)">
    <g
       transform="translate(216.90986,238.40114)"
       id="g29">
      <g
         id="g28">
        <path
           d="M 11.71875,0 H 9.734375 V -4.859375 H 3.515625 V 0 h -1.96875 v -11.734375 h 1.96875 v 5.09375 h 6.21875 v -5.09375 h 1.984375 z m 0,0"
           id="path27" />
      </g>
    </g>
  </g>
  <g
     fill="#3d3b3a"
     fill-opacity="1"
     id="g36"
     transform="translate(-93.74024,-88.43499)">
    <g
       transform="translate(247.92198,238.40114)"
       id="g35">
      <g
         id="g34">
        <path
           d="M 3.515625,-1.796875 H 8.59375 V 0 H 1.546875 v -11.734375 h 1.96875 z m 0,0"
           id="path33" />
      </g>
    </g>
  </g>
  <g
     fill="#3d3b3a"
     fill-opacity="1"
     id="g39"
     transform="translate(-93.74024,-88.43499)">
    <g
       transform="translate(263.58737,238.40114)"
       id="g38">
      <g
         id="g37">
        <path
           d="m 3.515625,0 h -1.96875 v -11.734375 h 1.96875 z m 0,0"
           id="path36" />
      </g>
    </g>
  </g>
  <g
     id="g2"
     transform="translate(4.0809025)">
    <g
       fill="#3d3b3a"
       fill-opacity="1"
       id="g42"
       transform="translate(-93.74024,-88.43499)">
      <g
         transform="translate(143.82685,149.92864)"
         id="g41">
        <g
           id="g40">
          <path
             d="m 51.03125,-0.96875 c 0.15625,0 0.234375,0.164062 0.234375,0.484375 C 51.265625,-0.160156 51.1875,0 51.03125,0 h -9 c -1.875,0 -3,-0.101562 -3.375,-0.3125 -0.375,-0.21875 -1.355469,-1.453125 -2.9375,-3.703125 -1.585938,-2.25 -3.5,-4.796875 -5.75,-7.640625 L 17.203125,-27.484375 14.390625,-24.75 v 18.234375 c 0,1.667969 0.171875,2.875 0.515625,3.625 0.34375,0.75 1,1.261719 1.96875,1.53125 0.96875,0.261719 2.519531,0.390625 4.65625,0.390625 0.113281,0 0.171875,0.164062 0.171875,0.484375 C 21.703125,-0.160156 21.644531,0 21.53125,0 19.925781,0 18.640625,-0.0234375 17.671875,-0.078125 L 12.21875,-0.15625 6.90625,-0.078125 C 5.945312,-0.0234375 4.609375,0 2.890625,0 2.785156,0 2.734375,-0.160156 2.734375,-0.484375 c 0,-0.320313 0.050781,-0.484375 0.15625,-0.484375 2.09375,0 3.632813,-0.128906 4.625,-0.390625 0.988281,-0.269531 1.671875,-0.789063 2.046875,-1.5625 0.375,-0.78125 0.5625,-1.976563 0.5625,-3.59375 V -43.71875 c 0,-1.601562 -0.179688,-2.78125 -0.53125,-3.53125 -0.34375,-0.75 -1.011719,-1.269531 -2,-1.5625 -0.992188,-0.300781 -2.53125,-0.453125 -4.625,-0.453125 -0.105469,0 -0.15625,-0.15625 -0.15625,-0.46875 0,-0.320313 0.050781,-0.484375 0.15625,-0.484375 l 3.9375,0.07813 c 2.25,0.105469 4.019531,0.15625 5.3125,0.15625 1.445312,0 3.296875,-0.05078 5.546875,-0.15625 l 3.765625,-0.07813 c 0.113281,0 0.171875,0.164062 0.171875,0.484375 0,0.3125 -0.05859,0.46875 -0.171875,0.46875 -2.085938,0 -3.625,0.164063 -4.625,0.484375 -0.992188,0.324219 -1.65625,0.875 -2,1.65625 -0.34375,0.773438 -0.515625,1.960938 -0.515625,3.5625 v 16.96875 L 32.0625,-44.203125 c 1.820312,-1.820313 2.734375,-3.078125 2.734375,-3.765625 0,-0.488281 -0.367187,-0.828125 -1.09375,-1.015625 -0.71875,-0.1875 -1.90625,-0.28125 -3.5625,-0.28125 -0.117187,0 -0.171875,-0.15625 -0.171875,-0.46875 0,-0.320313 0.05469,-0.484375 0.171875,-0.484375 l 3.375,0.07813 c 2.03125,0.105469 3.929687,0.15625 5.703125,0.15625 1.65625,0 3.394531,-0.05078 5.21875,-0.15625 l 2.8125,-0.07813 c 0.164062,0 0.25,0.164062 0.25,0.484375 0,0.3125 -0.08594,0.46875 -0.25,0.46875 -2.199219,0 -4.464844,0.417969 -6.796875,1.25 -2.324219,0.835937 -4.507813,2.265625 -6.546875,4.296875 L 20.25,-30.375 31.734375,-15.90625 c 4.070313,5.085938 7.179687,8.671875 9.328125,10.765625 2.144531,2.085937 3.78125,3.304687 4.90625,3.65625 1.125,0.34375 2.8125,0.515625 5.0625,0.515625 z m 0,0"
             id="path39" />
        </g>
      </g>
    </g>
    <g
       fill="#3d3b3a"
       fill-opacity="1"
       id="g45"
       transform="translate(-93.74024,-88.43499)">
      <g
         transform="translate(178.4762,189.16917)"
         id="g44">
        <g
           id="g43">
          <path
             d="m 14.296875,-6.828125 c 0,1.554687 0.171875,2.695313 0.515625,3.421875 0.351562,0.71875 1,1.214844 1.9375,1.484375 0.9375,0.261719 2.425781,0.390625 4.46875,0.390625 H 31.5 c 5.300781,0 8.4375,-3.398438 9.40625,-10.203125 0,-0.15625 0.144531,-0.21875 0.4375,-0.1875 0.289062,0.02344 0.4375,0.109375 0.4375,0.265625 -0.480469,4.242188 -0.71875,7.726562 -0.71875,10.453125 0,0.429687 -0.08594,0.734375 -0.25,0.921875 C 40.65625,-0.09375 40.335938,0 39.859375,0 H 2.890625 c -0.105469,0 -0.15625,-0.160156 -0.15625,-0.484375 0,-0.320313 0.050781,-0.484375 0.15625,-0.484375 2.09375,0 3.632813,-0.128906 4.625,-0.390625 0.988281,-0.269531 1.65625,-0.789063 2,-1.5625 0.351563,-0.78125 0.53125,-1.976563 0.53125,-3.59375 V -43.71875 c 0,-1.601562 -0.179687,-2.78125 -0.53125,-3.53125 -0.34375,-0.75 -1.011719,-1.269531 -2,-1.5625 -0.992187,-0.300781 -2.53125,-0.453125 -4.625,-0.453125 -0.105469,0 -0.15625,-0.15625 -0.15625,-0.46875 0,-0.320313 0.050781,-0.484375 0.15625,-0.484375 l 3.9375,0.07813 c 2.25,0.105469 4.019531,0.15625 5.3125,0.15625 1.4375,0 3.28125,-0.05078 5.53125,-0.15625 l 3.78125,-0.07813 c 0.101563,0 0.15625,0.164062 0.15625,0.484375 0,0.3125 -0.05469,0.46875 -0.15625,0.46875 -2.085937,0 -3.625,0.152344 -4.625,0.453125 -0.992187,0.292969 -1.664063,0.828125 -2.015625,1.609375 -0.34375,0.773437 -0.515625,1.960937 -0.515625,3.5625 z m 0,0"
             id="path42" />
        </g>
      </g>
    </g>
    <g
       clip-path="url(#b83081eb72)"
       id="g48"
       transform="translate(-93.74024,-88.43499)">
      <g
         clip-path="url(#8272e82657)"
         id="g47">
        <g
           clip-path="url(#912b945387)"
           id="g46">
          <path
             fill="#ffffff"
             d="m 187.89453,124.60547 12.32813,7.4414 -27.28516,45.20704 -12.32813,-7.44141 z m 0,0"
             fill-opacity="1"
             fill-rule="nonzero"
             id="path45" />
        </g>
      </g>
    </g>
    <g
       clip-path="url(#b487080579)"
       id="g51"
       transform="translate(-93.74024,-88.43499)">
      <g
         clip-path="url(#4a22398c33)"
         id="g50">
        <g
           clip-path="url(#1cd17d2607)"
           id="g49">
          <path
             fill="#ffffff"
             d="m 176.32812,124.60547 16.4375,9.92187 -14.52734,24.07032 -16.4375,-9.91797 z m 0,0"
             fill-opacity="1"
             fill-rule="nonzero"
             id="path48" />
        </g>
      </g>
    </g>
    <g
       clip-path="url(#a812a3649f)"
       id="g54"
       transform="translate(-93.74024,-88.43499)">
      <g
         clip-path="url(#ec9be1f5a6)"
         id="g53">
        <g
           clip-path="url(#aa9e947918)"
           id="g52">
          <path
             fill="#ffffff"
             d="m 190.14844,133.59375 16.4375,9.92187 -9.21094,15.26563 -16.44141,-9.92188 z m 0,0"
             fill-opacity="1"
             fill-rule="nonzero"
             id="path51" />
        </g>
      </g>
    </g>
    <path
       stroke-linecap="butt"
       fill="none"
       stroke-linejoin="miter"
       d="M 62.4785,95.09236 112.91598,23.27592"
       stroke="#3d3b3a"
       stroke-width="1.5008"
       stroke-opacity="1"
       stroke-miterlimit="4"
       id="path54" />
  </g>
  <g
     fill="#3d3b3a"
     fill-opacity="1"
     id="g57"
     transform="translate(-93.74024,-88.43499)">
    <g
       transform="translate(159.32863,262.56473)"
       id="g56">
      <g
         id="g55">
        <path
           d="m 7.1875,-6.25 c 0,-0.457031 -0.105469,-0.8125 -0.3125,-1.0625 -0.210938,-0.257812 -0.496094,-0.390625 -0.859375,-0.390625 -0.023437,0 -0.03125,-0.023437 -0.03125,-0.078125 0,-0.050781 0.00781,-0.078125 0.03125,-0.078125 l 0.59375,0.015625 c 0.320313,0.011719 0.582031,0.015625 0.78125,0.015625 0.15625,0 0.382813,-0.00391 0.6875,-0.015625 L 8.65625,-7.859375 c 0.00781,0 0.015625,0.027344 0.015625,0.078125 0,0.054688 -0.00781,0.078125 -0.015625,0.078125 -0.335938,0 -0.59375,0.132813 -0.78125,0.390625 -0.179688,0.25 -0.265625,0.605469 -0.265625,1.0625 v 3.5 c 0,0.585938 -0.132813,1.101562 -0.390625,1.546875 -0.261719,0.4375 -0.632812,0.777344 -1.109375,1.015625 -0.46875,0.2382812 -1.011719,0.359375 -1.625,0.359375 -0.625,0 -1.179687,-0.1171875 -1.65625,-0.34375 -0.480469,-0.238281 -0.855469,-0.582031 -1.125,-1.03125 -0.273437,-0.445313 -0.40625,-0.972656 -0.40625,-1.578125 v -4.0625 c 0,-0.25 -0.027344,-0.429688 -0.078125,-0.546875 -0.042969,-0.125 -0.125,-0.207031 -0.25,-0.25 -0.117188,-0.039063 -0.304688,-0.0625 -0.5625,-0.0625 -0.03125,0 -0.046875,-0.023437 -0.046875,-0.078125 0,-0.050781 0.015625,-0.078125 0.046875,-0.078125 L 1.0625,-7.84375 c 0.382812,0.011719 0.691406,0.015625 0.921875,0.015625 0.25,0 0.566406,-0.00391 0.953125,-0.015625 l 0.640625,-0.015625 c 0.03125,0 0.046875,0.027344 0.046875,0.078125 0,0.054688 -0.015625,0.078125 -0.046875,0.078125 C 3.316406,-7.703125 3.125,-7.675781 3,-7.625 2.882812,-7.582031 2.800781,-7.5 2.75,-7.375 2.707031,-7.25 2.6875,-7.0625 2.6875,-6.8125 v 3.59375 c 0,1 0.195312,1.742188 0.59375,2.21875 0.394531,0.46875 0.953125,0.703125 1.671875,0.703125 0.695313,0 1.242187,-0.207031 1.640625,-0.625 0.394531,-0.425781 0.59375,-1.03125 0.59375,-1.8125 z m 0,0"
           id="path55" />
      </g>
    </g>
  </g>
  <g
     fill="#3d3b3a"
     fill-opacity="1"
     id="g60"
     transform="translate(-93.74024,-88.43499)">
    <g
       transform="translate(171.94276,262.56473)"
       id="g59">
      <g
         id="g58">
        <path
           d="m 8.09375,-0.15625 c 0.03125,0 0.046875,0.027344 0.046875,0.078125 C 8.140625,-0.0234375 8.125,0 8.09375,0 7.851562,0 7.664062,-0.00390625 7.53125,-0.015625 L 6.78125,-0.03125 5.75,-0.015625 C 5.59375,-0.00390625 5.367188,0 5.078125,0 5.054688,0 5.046875,-0.0234375 5.046875,-0.078125 c 0,-0.050781 0.00781,-0.078125 0.03125,-0.078125 0.28125,0 0.421875,-0.066406 0.421875,-0.203125 0,-0.082031 -0.039062,-0.175781 -0.109375,-0.28125 L 3.65625,-3.3125 2.578125,-1.765625 c -0.324219,0.46875 -0.484375,0.84375 -0.484375,1.125 0,0.324219 0.210938,0.484375 0.640625,0.484375 0.019531,0 0.03125,0.027344 0.03125,0.078125 C 2.765625,-0.0234375 2.753906,0 2.734375,0 2.460938,0 2.253906,-0.00390625 2.109375,-0.015625 L 1.1875,-0.03125 0.59375,-0.015625 C 0.476562,-0.00390625 0.300781,0 0.0625,0 0.0390625,0 0.03125,-0.0234375 0.03125,-0.078125 c 0,-0.050781 0.0078125,-0.078125 0.03125,-0.078125 0.257812,0 0.578125,-0.132812 0.953125,-0.40625 0.375,-0.28125 0.769531,-0.707031 1.1875,-1.28125 l 1.28125,-1.734375 -2.015625,-3.125 C 1.238281,-7.066406 1.019531,-7.320312 0.8125,-7.46875 0.601562,-7.625 0.382812,-7.703125 0.15625,-7.703125 c -0.03125,0 -0.046875,-0.023437 -0.046875,-0.078125 0,-0.050781 0.015625,-0.078125 0.046875,-0.078125 L 0.6875,-7.84375 c 0.238281,0.011719 0.414062,0.015625 0.53125,0.015625 0.289062,0 0.65625,-0.00391 1.09375,-0.015625 l 0.71875,-0.015625 c 0.019531,0 0.03125,0.027344 0.03125,0.078125 0,0.054688 -0.011719,0.078125 -0.03125,0.078125 -0.28125,0 -0.421875,0.070313 -0.421875,0.203125 0,0.074219 0.035156,0.171875 0.109375,0.296875 L 4.375,-4.65625 5.390625,-6.09375 C 5.710938,-6.5625 5.875,-6.9375 5.875,-7.21875 c 0,-0.320312 -0.21875,-0.484375 -0.65625,-0.484375 -0.023438,0 -0.03125,-0.023437 -0.03125,-0.078125 0,-0.050781 0.00781,-0.078125 0.03125,-0.078125 l 0.625,0.015625 c 0.34375,0.011719 0.65625,0.015625 0.9375,0.015625 0.175781,0 0.375,-0.00391 0.59375,-0.015625 l 0.53125,-0.015625 c 0.019531,0 0.03125,0.027344 0.03125,0.078125 0,0.054688 -0.011719,0.078125 -0.03125,0.078125 -0.273438,0 -0.59375,0.140625 -0.96875,0.421875 -0.375,0.273438 -0.773438,0.695312 -1.1875,1.265625 L 4.546875,-4.375 l 2.15625,3.328125 c 0.207031,0.3125 0.421875,0.542969 0.640625,0.6875 0.21875,0.136719 0.46875,0.203125 0.75,0.203125 z m 0,0"
           id="path57" />
      </g>
    </g>
  </g>
  <g
     fill="#3d3b3a"
     fill-opacity="1"
     id="g63"
     transform="translate(-93.74024,-88.43499)">
    <g
       transform="translate(183.85272,262.56473)"
       id="g62">
      <g
         id="g61">
        <path
           d="M 0.9375,2.078125 C 0.914062,2.109375 0.804688,2.097656 0.609375,2.046875 0.410156,1.992188 0.316406,1.945312 0.328125,1.90625 L 3.5,-9.1875 C 3.507812,-9.21875 3.609375,-9.203125 3.796875,-9.140625 3.992188,-9.085938 4.09375,-9.039062 4.09375,-9 Z m 0,0"
           id="path60" />
      </g>
    </g>
  </g>
  <g
     fill="#3d3b3a"
     fill-opacity="1"
     id="g69"
     transform="translate(-93.74024,-88.43499)">
    <g
       transform="translate(198.75756,262.56473)"
       id="g68">
      <g
         id="g67">
        <path
           d="m 7.1875,-6.25 c 0,-0.457031 -0.105469,-0.8125 -0.3125,-1.0625 -0.210938,-0.257812 -0.496094,-0.390625 -0.859375,-0.390625 -0.023437,0 -0.03125,-0.023437 -0.03125,-0.078125 0,-0.050781 0.00781,-0.078125 0.03125,-0.078125 l 0.59375,0.015625 c 0.320313,0.011719 0.582031,0.015625 0.78125,0.015625 0.15625,0 0.382813,-0.00391 0.6875,-0.015625 L 8.65625,-7.859375 c 0.00781,0 0.015625,0.027344 0.015625,0.078125 0,0.054688 -0.00781,0.078125 -0.015625,0.078125 -0.335938,0 -0.59375,0.132813 -0.78125,0.390625 -0.179688,0.25 -0.265625,0.605469 -0.265625,1.0625 v 3.5 c 0,0.585938 -0.132813,1.101562 -0.390625,1.546875 -0.261719,0.4375 -0.632812,0.777344 -1.109375,1.015625 -0.46875,0.2382812 -1.011719,0.359375 -1.625,0.359375 -0.625,0 -1.179687,-0.1171875 -1.65625,-0.34375 -0.480469,-0.238281 -0.855469,-0.582031 -1.125,-1.03125 -0.273437,-0.445313 -0.40625,-0.972656 -0.40625,-1.578125 v -4.0625 c 0,-0.25 -0.027344,-0.429688 -0.078125,-0.546875 -0.042969,-0.125 -0.125,-0.207031 -0.25,-0.25 -0.117188,-0.039063 -0.304688,-0.0625 -0.5625,-0.0625 -0.03125,0 -0.046875,-0.023437 -0.046875,-0.078125 0,-0.050781 0.015625,-0.078125 0.046875,-0.078125 L 1.0625,-7.84375 c 0.382812,0.011719 0.691406,0.015625 0.921875,0.015625 0.25,0 0.566406,-0.00391 0.953125,-0.015625 l 0.640625,-0.015625 c 0.03125,0 0.046875,0.027344 0.046875,0.078125 0,0.054688 -0.015625,0.078125 -0.046875,0.078125 C 3.316406,-7.703125 3.125,-7.675781 3,-7.625 2.882812,-7.582031 2.800781,-7.5 2.75,-7.375 2.707031,-7.25 2.6875,-7.0625 2.6875,-6.8125 v 3.59375 c 0,1 0.195312,1.742188 0.59375,2.21875 0.394531,0.46875 0.953125,0.703125 1.671875,0.703125 0.695313,0 1.242187,-0.207031 1.640625,-0.625 0.394531,-0.425781 0.59375,-1.03125 0.59375,-1.8125 z m 0,0"
           id="path66" />
      </g>
    </g>
  </g>
  <g
     fill="#3d3b3a"
     fill-opacity="1"
     id="g72"
     transform="translate(-93.74024,-88.43499)">
    <g
       transform="translate(211.37168,262.56473)"
       id="g71">
      <g
         id="g70">
        <path
           d="m 2.859375,-1.015625 c 0,0.261719 0.019531,0.449219 0.0625,0.5625 0.039063,0.117187 0.117187,0.195313 0.234375,0.234375 0.125,0.042969 0.320312,0.0625 0.59375,0.0625 0.019531,0 0.03125,0.027344 0.03125,0.078125 C 3.78125,-0.0234375 3.769531,0 3.75,0 3.46875,0 3.25,-0.00390625 3.09375,-0.015625 L 2.140625,-0.03125 1.203125,-0.015625 C 1.035156,-0.00390625 0.8125,0 0.53125,0 0.507812,0 0.5,-0.0234375 0.5,-0.078125 c 0,-0.050781 0.007812,-0.078125 0.03125,-0.078125 0.269531,0 0.46875,-0.019531 0.59375,-0.0625 0.125,-0.039062 0.207031,-0.117188 0.25,-0.234375 0.050781,-0.125 0.078125,-0.3125 0.078125,-0.5625 V -6.84375 c 0,-0.25 -0.027344,-0.429688 -0.078125,-0.546875 -0.042969,-0.125 -0.125,-0.207031 -0.25,-0.25 C 1,-7.679688 0.800781,-7.703125 0.53125,-7.703125 0.507812,-7.703125 0.5,-7.726562 0.5,-7.78125 c 0,-0.050781 0.007812,-0.078125 0.03125,-0.078125 l 0.671875,0.015625 c 0.382813,0.011719 0.695313,0.015625 0.9375,0.015625 0.257813,0 0.582031,-0.00391 0.96875,-0.015625 L 3.75,-7.859375 c 0.019531,0 0.03125,0.027344 0.03125,0.078125 0,0.054688 -0.011719,0.078125 -0.03125,0.078125 -0.261719,0 -0.453125,0.027344 -0.578125,0.078125 -0.125,0.042969 -0.210937,0.125 -0.25,0.25 -0.042969,0.125 -0.0625,0.3125 -0.0625,0.5625 z m 0,0"
           id="path69" />
      </g>
    </g>
  </g>
</svg>
