<?xml version="1.0" encoding="UTF-8" standalone="no"?>
<svg
   width="250"
   zoomAndPan="magnify"
   viewBox="0 0 187.5 187.5"
   height="250"
   preserveAspectRatio="xMidYMid"
   version="1.0"
   id="svg73"
   sodipodi:docname="Full Logo - Dark BG.svg"
   inkscape:version="1.3 (0e150ed6c4, 2023-07-21)"
   inkscape:export-filename="Full Logo - Dark BG Normal.svg"
   inkscape:export-xdpi="96"
   inkscape:export-ydpi="96"
   xmlns:inkscape="http://www.inkscape.org/namespaces/inkscape"
   xmlns:sodipodi="http://sodipodi.sourceforge.net/DTD/sodipodi-0.dtd"
   xmlns="http://www.w3.org/2000/svg"
   xmlns:svg="http://www.w3.org/2000/svg">
  <sodipodi:namedview
     id="namedview73"
     pagecolor="#ffffff"
     bordercolor="#000000"
     borderopacity="0.25"
     inkscape:showpageshadow="2"
     inkscape:pageopacity="0.0"
     inkscape:pagecheckerboard="0"
     inkscape:deskcolor="#d1d1d1"
     inkscape:zoom="2.434"
     inkscape:cx="123.04848"
     inkscape:cy="119.76171"
     inkscape:window-width="2560"
     inkscape:window-height="1494"
     inkscape:window-x="-11"
     inkscape:window-y="-11"
     inkscape:window-maximized="1"
     inkscape:current-layer="svg73" />
  <defs
     id="defs9">
    <g
       id="g1" />
    <clipPath
       id="90d55da488">
      <path
         d="m 160,124 h 40 v 54 h -40 z m 0,0"
         clip-rule="nonzero"
         id="path1" />
    </clipPath>
    <clipPath
       id="06e2d76e7f">
      <path
         d="m 187.89453,124.60547 12.32813,7.4414 -27.63672,45.79297 -12.33203,-7.4414 z m 0,0"
         clip-rule="nonzero"
         id="path2" />
    </clipPath>
    <clipPath
       id="a1e36cbb68">
      <path
         d="m 187.89453,124.60547 12.07422,7.28515 -27.28906,45.21875 -12.07422,-7.28906 z m 0,0"
         clip-rule="nonzero"
         id="path3" />
    </clipPath>
    <clipPath
       id="3d6d81d0b4">
      <path
         d="m 161,124 h 32 v 35 h -32 z m 0,0"
         clip-rule="nonzero"
         id="path4" />
    </clipPath>
    <clipPath
       id="b4c7d0862e">
      <path
         d="m 176.32812,124.60547 17.02735,10.27734 -14.53125,24.07031 -17.02344,-10.27343 z m 0,0"
         clip-rule="nonzero"
         id="path5" />
    </clipPath>
    <clipPath
       id="9224de2f56">
      <path
         d="m 176.32812,124.60547 16.45313,9.92969 -14.46484,23.96484 -16.45313,-9.92969 z m 0,0"
         clip-rule="nonzero"
         id="path6" />
    </clipPath>
    <clipPath
       id="e1a2b5f617">
      <path
         d="m 181,129 h 29 v 30 h -29 z m 0,0"
         clip-rule="nonzero"
         id="path7" />
    </clipPath>
    <clipPath
       id="a32a260925">
      <path
         d="m 192.58203,129.5625 17.02734,10.27734 -11.69531,19.375 -17.02734,-10.27734 z m 0,0"
         clip-rule="nonzero"
         id="path8" />
    </clipPath>
    <clipPath
       id="a104f67640">
      <path
         d="m 192.58203,129.5625 16.45313,9.92969 L 197.5625,158.5 181.10937,148.57031 Z m 0,0"
         clip-rule="nonzero"
         id="path9" />
    </clipPath>
  </defs>
  <rect
     x="0"
     width="187.5"
     fill="#ffffff"
     y="0"
     height="187.5"
     fill-opacity="1"
     id="rect10"
     style="stroke-width:0.416667" />
  <g
     id="g27">
    <rect
       x="0"
       width="187.5"
       fill="#000000"
       y="0"
       height="187.5"
       fill-opacity="1"
       id="rect11"
       style="stroke-width:0.416667;fill:#3b3937;fill-opacity:1" />
  </g>
  <g
     id="g29">
    <path
       d="m 14.137207,138.23145 v 11.73486 h 1.96875 v -2.98389 l 1.999512,-2.20312 3.859863,5.18701 h 2.374512 l -4.842774,-6.71924 4.546875,-5.01562 h -2.329101 l -5.608887,6.06298 v -6.06298 z"
       style="fill:#ffffff;fill-opacity:1;stroke:none"
       id="path26" />
    <path
       d="m 32.888672,138.23145 v 11.73486 h 8.578125 v -1.78125 h -6.609375 v -3.23438 h 5.734863 v -1.78125 h -5.734863 v -3.15673 h 6.405762 v -1.78125 z"
       style="fill:#ffffff;fill-opacity:1;stroke:none"
       id="path24" />
    <path
       d="m 50.600098,138.23145 v 11.73486 h 1.96875 v -8.42139 l 6.265136,8.42139 h 1.937989 v -11.73486 h -1.937989 v 8.4375 l -6.295898,-8.4375 z"
       style="fill:#ffffff;fill-opacity:1;stroke:none"
       id="path23" />
    <path
       d="m 70.592285,138.23145 v 11.73486 h 1.96875 v -8.42139 l 6.265137,8.42139 h 1.937988 v -11.73486 h -1.937988 v 8.4375 l -6.295899,-8.4375 z"
       style="fill:#ffffff;fill-opacity:1;stroke:none"
       id="path21" />
    <path
       d="m 90.584473,138.23145 v 11.73486 h 8.578125 v -1.78125 h -6.609375 v -3.23438 h 5.734863 v -1.78125 h -5.734863 v -3.15673 h 6.407226 v -1.78125 z"
       style="fill:#ffffff;fill-opacity:1;stroke:none"
       id="path20" />
    <path
       d="m 106.90576,138.23145 v 1.78125 h 3.70313 v 9.95361 h 1.96875 v -9.95361 h 3.73388 v -1.78125 z"
       style="fill:#ffffff;fill-opacity:1;stroke:none"
       id="path18" />
    <path
       d="m 124.7168,138.23145 v 11.73486 h 1.96875 v -4.85889 h 6.21826 v 4.85889 h 1.98486 v -11.73486 h -1.98486 v 5.09472 h -6.21826 v -5.09472 z"
       style="fill:#ffffff;fill-opacity:1;stroke:none"
       id="path17" />
    <path
       d="m 155.729,138.23145 v 11.73486 h 7.0459 v -1.79736 h -5.07715 v -9.9375 z"
       style="fill:#ffffff;fill-opacity:1;stroke:none"
       id="path15" />
    <path
       d="m 171.39404,138.23145 v 11.73486 h 1.96875 v -11.73486 z"
       style="fill:#ffffff;fill-opacity:1;stroke:none"
       id="path14" />
  </g>
  <path
     d="m 57.136247,11.274902 c -0.02637,0 -0.04926,0.01038 -0.06885,0.03076 -0.01959,0.02039 -0.0354,0.05029 -0.04834,0.09082 -0.02588,0.08106 -0.03955,0.203125 -0.03955,0.363282 0,0.156249 0.01367,0.273437 0.03955,0.351562 0.01294,0.03906 0.02875,0.06836 0.04834,0.08789 0.01959,0.01953 0.04248,0.0293 0.06885,0.0293 0.523437,0 1.012085,0.0088 1.466308,0.02783 0.454224,0.01898 0.874513,0.04712 1.259766,0.08496 0.385253,0.03784 0.73523,0.08551 1.051758,0.142089 0.316527,0.05658 0.598633,0.122559 0.846679,0.197754 0.247071,0.07324 0.474182,0.160584 0.681153,0.262207 0.20697,0.101624 0.394287,0.217042 0.561035,0.347168 0.166747,0.130127 0.313049,0.274842 0.439453,0.433594 0.126404,0.158752 0.233399,0.33252 0.319336,0.52002 0.08789,0.187499 0.16516,0.401977 0.231445,0.643066 0.06628,0.241089 0.121093,0.508301 0.165528,0.802734 0.04443,0.294434 0.07873,0.614869 0.101074,0.962403 0.02234,0.347534 0.03223,0.72168 0.03223,1.12207 v 37.204102 c 0,0.404296 -0.01172,0.782104 -0.03516,1.133789 -0.02344,0.351684 -0.05859,0.676269 -0.105469,0.975586 -0.04687,0.299316 -0.105468,0.57312 -0.17578,0.820312 -0.07031,0.247192 -0.152344,0.468262 -0.246094,0.663574 -0.09375,0.193359 -0.206115,0.371522 -0.338378,0.533203 -0.132263,0.161682 -0.283448,0.306397 -0.454102,0.436524 -0.170654,0.130127 -0.360901,0.245544 -0.569824,0.344238 -0.208923,0.09869 -0.437012,0.181641 -0.684082,0.249024 -0.248047,0.06543 -0.530152,0.122497 -0.84668,0.171386 -0.316528,0.04889 -0.667969,0.08911 -1.053223,0.121582 -0.385253,0.03247 -0.804077,0.05707 -1.2583,0.07324 -0.454224,0.01617 -0.942872,0.02344 -1.466309,0.02344 -0.02637,0 -0.04926,0.01038 -0.06885,0.03076 -0.01959,0.02038 -0.03686,0.05176 -0.0498,0.09228 -0.02588,0.08105 -0.03809,0.20166 -0.03809,0.361816 0,0.16211 0.01221,0.282715 0.03809,0.363282 0.01294,0.04028 0.03021,0.07074 0.0498,0.09082 0.01959,0.02008 0.04248,0.03076 0.06885,0.03076 0.859374,0 1.622071,-0.0063 2.291016,-0.01904 0.668944,-0.0127 1.243652,-0.03272 1.724121,-0.06006 l 5.312988,-0.07764 5.452147,0.07764 c 0.484375,0.02734 1.048829,0.04736 1.691895,0.06006 0.195961,0.0039 0.449888,0.0032 0.660646,0.0059 L 72.33107,60.358887 c -0.148638,-0.01795 -0.317429,-0.03175 -0.452637,-0.05274 -0.315002,-0.04889 -0.594238,-0.105957 -0.836426,-0.171386 -0.242187,-0.06738 -0.464843,-0.149964 -0.667968,-0.247559 -0.203125,-0.09759 -0.386719,-0.210693 -0.550782,-0.338379 -0.164062,-0.127685 -0.308593,-0.270081 -0.433593,-0.427734 -0.125,-0.157654 -0.230469,-0.331055 -0.316407,-0.518555 -0.08594,-0.1875 -0.161131,-0.402771 -0.225584,-0.647461 -0.06445,-0.24469 -0.118166,-0.518311 -0.161134,-0.820312 -0.04297,-0.302002 -0.0752,-0.632264 -0.09668,-0.9917 -0.02148,-0.359435 -0.03223,-0.747559 -0.03223,-1.16455 v -18.23437 l 2.8125,-2.734864 9.498047,11.774414 2.241211,-3.714843 -8.692383,-10.949707 13.656739,-13.344727 c 0.254882,-0.253906 0.512581,-0.497299 0.771972,-0.732422 0.259392,-0.235122 0.521271,-0.461853 0.785157,-0.678222 0.263885,-0.21637 0.529976,-0.423447 0.79834,-0.621094 0.268363,-0.197647 0.538696,-0.38501 0.811523,-0.563965 0.272827,-0.178955 0.547432,-0.349472 0.824707,-0.509766 0.277275,-0.160293 0.557648,-0.310974 0.839355,-0.452636 0.281708,-0.141663 0.56495,-0.273911 0.851075,-0.396973 0.286125,-0.123062 0.57373,-0.236817 0.864257,-0.341309 0.583008,-0.208007 1.162599,-0.390198 1.737305,-0.546386 0.574707,-0.156189 1.144532,-0.286866 1.710938,-0.391114 0.566405,-0.104248 1.129395,-0.18219 1.6875,-0.234375 0.279048,-0.02609 0.556518,-0.04554 0.833498,-0.05859 0.27698,-0.01305 0.55273,-0.01904 0.82763,-0.01904 0.041,0 0.0773,-0.0098 0.1084,-0.0293 0.0311,-0.01953 0.0581,-0.04883 0.0791,-0.08789 0.021,-0.03906 0.0362,-0.08789 0.0469,-0.146484 0.0106,-0.05859 0.0161,-0.126953 0.0161,-0.205078 0,-0.08008 -0.005,-0.150513 -0.0161,-0.210938 -0.0106,-0.06043 -0.0259,-0.111816 -0.0469,-0.152344 -0.021,-0.04053 -0.048,-0.07043 -0.0791,-0.09082 -0.0311,-0.02039 -0.0674,-0.03076 -0.1084,-0.03076 l -2.812496,0.07764 c -0.912108,0.05274 -1.802246,0.09277 -2.671875,0.118652 -0.869628,0.02588 -1.717774,0.03809 -2.545898,0.03809 -0.886718,0 -1.805177,-0.01221 -2.755371,-0.03809 -0.950194,-0.02588 -1.933107,-0.06592 -2.948731,-0.118652 l -3.375,-0.07764 c -0.0293,0 -0.05456,0.01038 -0.07617,0.03076 -0.02161,0.02039 -0.03857,0.05029 -0.05273,0.09082 -0.02832,0.08106 -0.04248,0.203125 -0.04248,0.363282 0,0.156249 0.01416,0.273437 0.04248,0.351562 0.01416,0.03906 0.03113,0.06836 0.05273,0.08789 0.02161,0.01953 0.04687,0.0293 0.07617,0.0293 0.414063,0 0.798829,0.0059 1.154297,0.01758 0.355469,0.01172 0.681641,0.0293 0.978516,0.05273 0.296875,0.02344 0.564453,0.05274 0.802734,0.08789 0.238281,0.03516 0.447266,0.07617 0.626953,0.123047 0.181641,0.04687 0.340943,0.1026 0.47754,0.168457 0.136596,0.06586 0.251465,0.140869 0.342773,0.225586 0.09131,0.08472 0.159302,0.17926 0.205078,0.282714 0.04578,0.103455 0.06885,0.216309 0.06885,0.338379 0,0.08594 -0.01393,0.180436 -0.04248,0.28418 -0.02855,0.103744 -0.07184,0.216858 -0.128906,0.338379 -0.05707,0.121521 -0.128311,0.251846 -0.213867,0.391113 -0.08556,0.139267 -0.184815,0.286866 -0.298828,0.443848 -0.228027,0.313964 -0.513795,0.664185 -0.855469,1.048828 -0.341674,0.384643 -0.740235,0.804688 -1.195313,1.259766 L 68.557632,34.899902 v -16.96875 c 0,-0.40039 0.01074,-0.774902 0.03223,-1.123535 0.02148,-0.348632 0.05371,-0.671387 0.09668,-0.968262 0.04297,-0.296874 0.09668,-0.567871 0.161133,-0.812988 0.06445,-0.245117 0.139648,-0.464355 0.225585,-0.657715 0.08594,-0.195312 0.193237,-0.376892 0.319336,-0.543457 0.126099,-0.166564 0.271485,-0.317627 0.437989,-0.455566 0.166503,-0.137939 0.353882,-0.262634 0.561035,-0.37207 0.207153,-0.109436 0.43457,-0.20459 0.682617,-0.285645 0.25,-0.08008 0.53357,-0.150513 0.851074,-0.210937 0.317505,-0.06043 0.667969,-0.110352 1.053223,-0.150879 0.385253,-0.04053 0.805054,-0.07043 1.258301,-0.09082 0.453246,-0.02039 0.94043,-0.03076 1.461914,-0.03076 0.02832,0 0.05328,-0.0098 0.07471,-0.0293 0.02142,-0.01953 0.03979,-0.04883 0.0542,-0.08789 0.02881,-0.07813 0.04248,-0.195313 0.04248,-0.351562 0,-0.160157 -0.01367,-0.282227 -0.04248,-0.363282 -0.0144,-0.04053 -0.03278,-0.07043 -0.0542,-0.09082 -0.02142,-0.02039 -0.04639,-0.03076 -0.07471,-0.03076 l -3.766114,0.07764 c -1.124999,0.05274 -2.149903,0.09277 -3.074708,0.118652 -0.924802,0.02588 -1.748536,0.03809 -2.47119,0.03809 -0.646484,0 -1.413087,-0.01221 -2.298341,-0.03809 -0.885252,-0.02588 -1.889648,-0.06592 -3.014647,-0.118652 z"
     style="fill:#ffffff;fill-opacity:1"
     id="path10" />
  <path
     d="M 103.1133,66.874512 98.863785,64.30957 v 29.90918 c 0,0.404296 -0.01135,0.782105 -0.03369,1.133789 -0.02234,0.351684 -0.05517,0.677735 -0.09961,0.977051 -0.04443,0.299316 -0.100708,0.571655 -0.166992,0.818847 -0.06628,0.247193 -0.143555,0.468262 -0.231445,0.663575 -0.04297,0.09668 -0.09046,0.189567 -0.143555,0.27832 -0.05309,0.08875 -0.111115,0.174042 -0.174317,0.254883 -0.0632,0.08084 -0.131782,0.157036 -0.205078,0.22998 -0.0733,0.07295 -0.151001,0.142945 -0.234375,0.208008 -0.08337,0.06506 -0.171699,0.125908 -0.265136,0.183106 -0.09344,0.0572 -0.192414,0.110321 -0.295899,0.159668 -0.20697,0.09869 -0.434082,0.18164 -0.681152,0.249023 -0.248047,0.06543 -0.530152,0.122498 -0.84668,0.171387 -0.316528,0.04889 -0.667969,0.08911 -1.053223,0.121582 -0.385253,0.03247 -0.804077,0.05707 -1.2583,0.07324 -0.454223,0.01617 -0.942872,0.0249 -1.466309,0.0249 -0.02637,0 -0.04926,0.0089 -0.06885,0.0293 -0.01959,0.02039 -0.03686,0.05176 -0.0498,0.09228 -0.02588,0.08106 -0.03809,0.201661 -0.03809,0.361811 0,0.16211 0.01221,0.28418 0.03809,0.36475 0.01294,0.0403 0.03021,0.0693 0.0498,0.0893 0.01959,0.0201 0.04248,0.0308 0.06885,0.0308 h 36.968256 c 0.11915,0 0.22864,-0.006 0.32813,-0.0176 0.0995,-0.0117 0.18848,-0.0293 0.26807,-0.0527 0.0796,-0.0234 0.15002,-0.0527 0.20947,-0.0879 0.0594,-0.0352 0.10889,-0.0762 0.14795,-0.12304 0.041,-0.0469 0.0773,-0.10096 0.1084,-0.1626 0.0311,-0.0617 0.0566,-0.13135 0.0776,-0.20801 0.021,-0.0767 0.0377,-0.160031 0.0483,-0.25195 0.0106,-0.09192 0.0147,-0.191406 0.0147,-0.298828 0,-0.68164 0.0156,-1.410645 0.0454,-2.187011 0.0298,-0.776367 0.075,-1.600099 0.13477,-2.471192 0.0598,-0.871093 0.13421,-1.789552 0.22412,-2.755371 0.0899,-0.965819 0.19482,-1.979005 0.31494,-3.039551 0,-0.03906 -0.009,-0.07507 -0.0278,-0.105468 -0.0184,-0.0304 -0.0454,-0.05567 -0.082,-0.07764 -0.0366,-0.02197 -0.0831,-0.04041 -0.1377,-0.0542 -0.0546,-0.01379 -0.11816,-0.02344 -0.19043,-0.0293 -0.0732,-0.0078 -0.13714,-0.0098 -0.19189,-0.0059 -0.0547,0.0039 -0.0999,0.01367 -0.13623,0.0293 -0.0364,0.01563 -0.0639,0.03711 -0.082,0.06445 -0.0181,0.02734 -0.0264,0.06055 -0.0264,0.09961 -0.0605,0.425292 -0.13053,0.837645 -0.20801,1.236328 -0.0775,0.398683 -0.16339,0.783684 -0.25781,1.155762 -0.0944,0.372077 -0.19627,0.731184 -0.30762,1.07666 -0.11135,0.345476 -0.23207,0.677216 -0.36035,0.996093 -0.12828,0.318878 -0.26495,0.624709 -0.41016,0.916993 -0.14521,0.292283 -0.29782,0.570732 -0.45996,0.836425 -0.16213,0.265694 -0.33363,0.518218 -0.51269,0.757325 -0.17906,0.239107 -0.36652,0.465698 -0.5625,0.678222 -0.19599,0.212525 -0.40087,0.411711 -0.61377,0.597657 -0.21291,0.185945 -0.43375,0.359184 -0.66358,0.518554 -0.22982,0.159371 -0.4681,0.30519 -0.71484,0.437989 -0.24674,0.132799 -0.50246,0.25119 -0.76611,0.357421 -0.26366,0.106232 -0.53535,0.200118 -0.81592,0.279786 -0.28057,0.07967 -0.56971,0.14611 -0.86719,0.199218 -0.29748,0.05311 -0.6026,0.0921 -0.91699,0.118653 -0.31439,0.02655 -0.63843,0.04102 -0.96973,0.04102 h -10.28027 c -0.51074,0 -0.98676,-0.0087 -1.42822,-0.0249 -0.44147,-0.01617 -0.84937,-0.04077 -1.22168,-0.07324 -0.37232,-0.03247 -0.70893,-0.07269 -1.01221,-0.121582 -0.30328,-0.04889 -0.57276,-0.105957 -0.80713,-0.171387 -0.23437,-0.06738 -0.45081,-0.148987 -0.64893,-0.244629 -0.19812,-0.09564 -0.37744,-0.205811 -0.53906,-0.32959 -0.16162,-0.123779 -0.30578,-0.261291 -0.43066,-0.413086 -0.12488,-0.151794 -0.23145,-0.316894 -0.31934,-0.496582 -0.0859,-0.18164 -0.16113,-0.38916 -0.22558,-0.622558 -0.0644,-0.233399 -0.11817,-0.492676 -0.16114,-0.777832 -0.043,-0.285156 -0.0752,-0.596192 -0.0967,-0.933106 -0.0215,-0.336914 -0.0322,-0.699707 -0.0322,-1.088379 z"
     style="fill:#ffffff;fill-opacity:1"
     id="path12" />
  <path
     stroke-linecap="butt"
     fill="none"
     stroke-linejoin="miter"
     d="M 66.559575,95.092313 116.99706,23.275873"
     stroke="#ffffff"
     stroke-width="1.5008"
     stroke-opacity="1"
     stroke-miterlimit="4"
     id="path55"
     style="fill:#ffffff;fill-opacity:1;stroke:#ffffff;stroke-opacity:1" />
  <g
     fill="#ffffff"
     fill-opacity="1"
     id="g58"
     transform="translate(-93.740235,-88.435027)">
    <g
       transform="translate(159.32863,262.56479)"
       id="g57">
      <g
         id="g56">
        <path
           d="m 7.1875,-6.25 c 0,-0.457031 -0.105469,-0.8125 -0.3125,-1.0625 -0.210938,-0.257812 -0.496094,-0.390625 -0.859375,-0.390625 -0.023437,0 -0.03125,-0.023437 -0.03125,-0.078125 0,-0.050781 0.00781,-0.078125 0.03125,-0.078125 l 0.59375,0.015625 c 0.320313,0.011719 0.582031,0.015625 0.78125,0.015625 0.15625,0 0.382813,-0.00391 0.6875,-0.015625 L 8.65625,-7.859375 c 0.00781,0 0.015625,0.027344 0.015625,0.078125 0,0.054688 -0.00781,0.078125 -0.015625,0.078125 -0.335938,0 -0.59375,0.132813 -0.78125,0.390625 -0.179688,0.25 -0.265625,0.605469 -0.265625,1.0625 v 3.5 c 0,0.585938 -0.132813,1.101562 -0.390625,1.546875 -0.261719,0.4375 -0.632812,0.777344 -1.109375,1.015625 -0.46875,0.2382812 -1.011719,0.359375 -1.625,0.359375 -0.625,0 -1.179687,-0.1171875 -1.65625,-0.34375 -0.480469,-0.238281 -0.855469,-0.582031 -1.125,-1.03125 -0.273437,-0.445313 -0.40625,-0.972656 -0.40625,-1.578125 v -4.0625 c 0,-0.25 -0.027344,-0.429688 -0.078125,-0.546875 -0.042969,-0.125 -0.125,-0.207031 -0.25,-0.25 -0.117188,-0.039063 -0.304688,-0.0625 -0.5625,-0.0625 -0.03125,0 -0.046875,-0.023437 -0.046875,-0.078125 0,-0.050781 0.015625,-0.078125 0.046875,-0.078125 L 1.0625,-7.84375 c 0.382812,0.011719 0.691406,0.015625 0.921875,0.015625 0.25,0 0.566406,-0.00391 0.953125,-0.015625 l 0.640625,-0.015625 c 0.03125,0 0.046875,0.027344 0.046875,0.078125 0,0.054688 -0.015625,0.078125 -0.046875,0.078125 C 3.316406,-7.703125 3.125,-7.675781 3,-7.625 2.882812,-7.582031 2.800781,-7.5 2.75,-7.375 2.707031,-7.25 2.6875,-7.0625 2.6875,-6.8125 v 3.59375 c 0,1 0.195312,1.742188 0.59375,2.21875 0.394531,0.46875 0.953125,0.703125 1.671875,0.703125 0.695313,0 1.242187,-0.207031 1.640625,-0.625 0.394531,-0.425781 0.59375,-1.03125 0.59375,-1.8125 z m 0,0"
           id="path56" />
      </g>
    </g>
  </g>
  <g
     fill="#ffffff"
     fill-opacity="1"
     id="g61"
     transform="translate(-93.740235,-88.435027)">
    <g
       transform="translate(171.94276,262.56479)"
       id="g60">
      <g
         id="g59">
        <path
           d="m 8.09375,-0.15625 c 0.03125,0 0.046875,0.027344 0.046875,0.078125 C 8.140625,-0.0234375 8.125,0 8.09375,0 7.851562,0 7.664062,-0.00390625 7.53125,-0.015625 L 6.78125,-0.03125 5.75,-0.015625 C 5.59375,-0.00390625 5.367188,0 5.078125,0 5.054688,0 5.046875,-0.0234375 5.046875,-0.078125 c 0,-0.050781 0.00781,-0.078125 0.03125,-0.078125 0.28125,0 0.421875,-0.066406 0.421875,-0.203125 0,-0.082031 -0.039062,-0.175781 -0.109375,-0.28125 L 3.65625,-3.3125 2.578125,-1.765625 c -0.324219,0.46875 -0.484375,0.84375 -0.484375,1.125 0,0.324219 0.210938,0.484375 0.640625,0.484375 0.019531,0 0.03125,0.027344 0.03125,0.078125 C 2.765625,-0.0234375 2.753906,0 2.734375,0 2.460938,0 2.253906,-0.00390625 2.109375,-0.015625 L 1.1875,-0.03125 0.59375,-0.015625 C 0.476562,-0.00390625 0.300781,0 0.0625,0 0.0390625,0 0.03125,-0.0234375 0.03125,-0.078125 c 0,-0.050781 0.0078125,-0.078125 0.03125,-0.078125 0.257812,0 0.578125,-0.132812 0.953125,-0.40625 0.375,-0.28125 0.769531,-0.707031 1.1875,-1.28125 l 1.28125,-1.734375 -2.015625,-3.125 C 1.238281,-7.066406 1.019531,-7.320312 0.8125,-7.46875 0.601562,-7.625 0.382812,-7.703125 0.15625,-7.703125 c -0.03125,0 -0.046875,-0.023437 -0.046875,-0.078125 0,-0.050781 0.015625,-0.078125 0.046875,-0.078125 L 0.6875,-7.84375 c 0.238281,0.011719 0.414062,0.015625 0.53125,0.015625 0.289062,0 0.65625,-0.00391 1.09375,-0.015625 l 0.71875,-0.015625 c 0.019531,0 0.03125,0.027344 0.03125,0.078125 0,0.054688 -0.011719,0.078125 -0.03125,0.078125 -0.28125,0 -0.421875,0.070313 -0.421875,0.203125 0,0.074219 0.035156,0.171875 0.109375,0.296875 L 4.375,-4.65625 5.390625,-6.09375 C 5.710938,-6.5625 5.875,-6.9375 5.875,-7.21875 c 0,-0.320312 -0.21875,-0.484375 -0.65625,-0.484375 -0.023438,0 -0.03125,-0.023437 -0.03125,-0.078125 0,-0.050781 0.00781,-0.078125 0.03125,-0.078125 l 0.625,0.015625 c 0.34375,0.011719 0.65625,0.015625 0.9375,0.015625 0.175781,0 0.375,-0.00391 0.59375,-0.015625 l 0.53125,-0.015625 c 0.019531,0 0.03125,0.027344 0.03125,0.078125 0,0.054688 -0.011719,0.078125 -0.03125,0.078125 -0.273438,0 -0.59375,0.140625 -0.96875,0.421875 -0.375,0.273438 -0.773438,0.695312 -1.1875,1.265625 L 4.546875,-4.375 l 2.15625,3.328125 c 0.207031,0.3125 0.421875,0.542969 0.640625,0.6875 0.21875,0.136719 0.46875,0.203125 0.75,0.203125 z m 0,0"
           id="path58" />
      </g>
    </g>
  </g>
  <g
     fill="#ffffff"
     fill-opacity="1"
     id="g64"
     transform="translate(-93.740235,-88.435027)">
    <g
       transform="translate(183.85272,262.56479)"
       id="g63">
      <g
         id="g62">
        <path
           d="M 0.9375,2.078125 C 0.914062,2.109375 0.804688,2.097656 0.609375,2.046875 0.410156,1.992188 0.316406,1.945312 0.328125,1.90625 L 3.5,-9.1875 C 3.507812,-9.21875 3.609375,-9.203125 3.796875,-9.140625 3.992188,-9.085938 4.09375,-9.039062 4.09375,-9 Z m 0,0"
           id="path61" />
      </g>
    </g>
  </g>
  <g
     fill="#ffffff"
     fill-opacity="1"
     id="g70"
     transform="translate(-93.740235,-88.435027)">
    <g
       transform="translate(198.75756,262.56479)"
       id="g69">
      <g
         id="g68">
        <path
           d="m 7.1875,-6.25 c 0,-0.457031 -0.105469,-0.8125 -0.3125,-1.0625 -0.210938,-0.257812 -0.496094,-0.390625 -0.859375,-0.390625 -0.023437,0 -0.03125,-0.023437 -0.03125,-0.078125 0,-0.050781 0.00781,-0.078125 0.03125,-0.078125 l 0.59375,0.015625 c 0.320313,0.011719 0.582031,0.015625 0.78125,0.015625 0.15625,0 0.382813,-0.00391 0.6875,-0.015625 L 8.65625,-7.859375 c 0.00781,0 0.015625,0.027344 0.015625,0.078125 0,0.054688 -0.00781,0.078125 -0.015625,0.078125 -0.335938,0 -0.59375,0.132813 -0.78125,0.390625 -0.179688,0.25 -0.265625,0.605469 -0.265625,1.0625 v 3.5 c 0,0.585938 -0.132813,1.101562 -0.390625,1.546875 -0.261719,0.4375 -0.632812,0.777344 -1.109375,1.015625 -0.46875,0.2382812 -1.011719,0.359375 -1.625,0.359375 -0.625,0 -1.179687,-0.1171875 -1.65625,-0.34375 -0.480469,-0.238281 -0.855469,-0.582031 -1.125,-1.03125 -0.273437,-0.445313 -0.40625,-0.972656 -0.40625,-1.578125 v -4.0625 c 0,-0.25 -0.027344,-0.429688 -0.078125,-0.546875 -0.042969,-0.125 -0.125,-0.207031 -0.25,-0.25 -0.117188,-0.039063 -0.304688,-0.0625 -0.5625,-0.0625 -0.03125,0 -0.046875,-0.023437 -0.046875,-0.078125 0,-0.050781 0.015625,-0.078125 0.046875,-0.078125 L 1.0625,-7.84375 c 0.382812,0.011719 0.691406,0.015625 0.921875,0.015625 0.25,0 0.566406,-0.00391 0.953125,-0.015625 l 0.640625,-0.015625 c 0.03125,0 0.046875,0.027344 0.046875,0.078125 0,0.054688 -0.015625,0.078125 -0.046875,0.078125 C 3.316406,-7.703125 3.125,-7.675781 3,-7.625 2.882812,-7.582031 2.800781,-7.5 2.75,-7.375 2.707031,-7.25 2.6875,-7.0625 2.6875,-6.8125 v 3.59375 c 0,1 0.195312,1.742188 0.59375,2.21875 0.394531,0.46875 0.953125,0.703125 1.671875,0.703125 0.695313,0 1.242187,-0.207031 1.640625,-0.625 0.394531,-0.425781 0.59375,-1.03125 0.59375,-1.8125 z m 0,0"
           id="path67" />
      </g>
    </g>
  </g>
  <g
     fill="#ffffff"
     fill-opacity="1"
     id="g73"
     transform="translate(-93.740235,-88.435027)">
    <g
       transform="translate(211.37168,262.56479)"
       id="g72">
      <g
         id="g71">
        <path
           d="m 2.859375,-1.015625 c 0,0.261719 0.019531,0.449219 0.0625,0.5625 0.039063,0.117187 0.117187,0.195313 0.234375,0.234375 0.125,0.042969 0.320312,0.0625 0.59375,0.0625 0.019531,0 0.03125,0.027344 0.03125,0.078125 C 3.78125,-0.0234375 3.769531,0 3.75,0 3.46875,0 3.25,-0.00390625 3.09375,-0.015625 L 2.140625,-0.03125 1.203125,-0.015625 C 1.035156,-0.00390625 0.8125,0 0.53125,0 0.507812,0 0.5,-0.0234375 0.5,-0.078125 c 0,-0.050781 0.007812,-0.078125 0.03125,-0.078125 0.269531,0 0.46875,-0.019531 0.59375,-0.0625 0.125,-0.039062 0.207031,-0.117188 0.25,-0.234375 0.050781,-0.125 0.078125,-0.3125 0.078125,-0.5625 V -6.84375 c 0,-0.25 -0.027344,-0.429688 -0.078125,-0.546875 -0.042969,-0.125 -0.125,-0.207031 -0.25,-0.25 C 1,-7.679688 0.800781,-7.703125 0.53125,-7.703125 0.507812,-7.703125 0.5,-7.726562 0.5,-7.78125 c 0,-0.050781 0.007812,-0.078125 0.03125,-0.078125 l 0.671875,0.015625 c 0.382813,0.011719 0.695313,0.015625 0.9375,0.015625 0.257813,0 0.582031,-0.00391 0.96875,-0.015625 L 3.75,-7.859375 c 0.019531,0 0.03125,0.027344 0.03125,0.078125 0,0.054688 -0.011719,0.078125 -0.03125,0.078125 -0.261719,0 -0.453125,0.027344 -0.578125,0.078125 -0.125,0.042969 -0.210937,0.125 -0.25,0.25 -0.042969,0.125 -0.0625,0.3125 -0.0625,0.5625 z m 0,0"
           id="path70" />
      </g>
    </g>
  </g>
</svg>
