<?xml version="1.0" encoding="UTF-8" standalone="no"?>
<!-- Created with Inkscape (http://www.inkscape.org/) -->

<svg
   width="96mm"
   height="96mm"
   viewBox="0 0 96 96"
   version="1.1"
   id="svg1"
   inkscape:version="1.3 (0e150ed6c4, 2023-07-21)"
   sodipodi:docname="Logo - Dark.svg"
   xmlns:inkscape="http://www.inkscape.org/namespaces/inkscape"
   xmlns:sodipodi="http://sodipodi.sourceforge.net/DTD/sodipodi-0.dtd"
   xmlns="http://www.w3.org/2000/svg"
   xmlns:svg="http://www.w3.org/2000/svg">
  <sodipodi:namedview
     id="namedview1"
     pagecolor="#ffffff"
     bordercolor="#000000"
     borderopacity="0.25"
     inkscape:showpageshadow="2"
     inkscape:pageopacity="0.0"
     inkscape:pagecheckerboard="0"
     inkscape:deskcolor="#d1d1d1"
     inkscape:document-units="mm"
     inkscape:zoom="0.76662259"
     inkscape:cx="76.960946"
     inkscape:cy="191.09794"
     inkscape:window-width="2560"
     inkscape:window-height="1494"
     inkscape:window-x="-11"
     inkscape:window-y="-11"
     inkscape:window-maximized="1"
     inkscape:current-layer="layer1" />
  <defs
     id="defs1" />
  <g
     inkscape:label="Layer 1"
     inkscape:groupmode="layer"
     id="layer1"
     transform="translate(-77.503796,-34.999866)">
    <g
       id="g12"
       inkscape:label="Full"
       style="fill:#0e3d5b;fill-opacity:1"
       transform="translate(0.170573,7.332689)">
      <text
         xml:space="preserve"
         style="font-style:normal;font-variant:normal;font-weight:normal;font-stretch:semi-condensed;font-size:16.9333px;font-family:'Noto Serif';-inkscape-font-specification:'Noto Serif Semi-Condensed';fill:#0e3d5b;fill-opacity:1;stroke-width:0.264583"
         x="77.369621"
         y="116.33449"
         id="text5"
         inkscape:label="Name Text"><tspan
           sodipodi:role="line"
           id="tspan5"
           style="font-size:16.9333px;fill:#0e3d5b;fill-opacity:1;stroke-width:0.264583"
           x="77.369621"
           y="116.33449">KENNETH LI</tspan></text>
      <g
         id="g11"
         inkscape:label="Logo"
         style="fill:#0e3d5b;fill-opacity:1">
        <path
           d="m 77.503796,34.999931 v 3.79305 h 1.35444 c 0.301035,0 0.594582,0.0096 0.880566,0.02842 0.285985,0.01882 0.564675,0.04712 0.835608,0.08475 0.270933,0.03763 0.534252,0.08463 0.790133,0.141077 0.25588,0.05644 0.504345,0.122145 0.745174,0.197404 0.255881,0.06021 0.498581,0.141279 0.728121,0.242879 0.229539,0.1016 0.445856,0.223911 0.649056,0.366903 0.203199,0.142992 0.393132,0.306541 0.569991,0.490926 0.176859,0.184385 0.340408,0.389172 0.490926,0.61495 0.07526,0.105361 0.146022,0.217973 0.211873,0.337447 0.06585,0.119473 0.127007,0.246238 0.183452,0.379821 0.112887,0.26717 0.206894,0.562121 0.282153,0.885734 0.07526,0.323615 0.131352,0.675692 0.168982,1.05575 0.03763,0.380058 0.05684,0.78823 0.05684,1.224731 v 44.884599 c 0,0.421451 -0.01922,0.818609 -0.05684,1.191142 -0.03763,0.372532 -0.09372,0.720767 -0.168982,1.044381 -0.07526,0.323613 -0.169266,0.622407 -0.282153,0.897103 -0.112889,0.274694 -0.244807,0.525081 -0.395325,0.750858 -0.150518,0.210726 -0.314067,0.404501 -0.490926,0.58136 -0.176859,0.176859 -0.366792,0.336565 -0.569991,0.479557 -0.2032,0.142993 -0.419517,0.269146 -0.649056,0.378272 -0.22954,0.109125 -0.47224,0.20121 -0.728121,0.276469 -0.255881,0.06021 -0.517795,0.112974 -0.784965,0.15813 -0.26717,0.04515 -0.540096,0.08307 -0.818555,0.113171 -0.278459,0.0301 -0.562398,0.05264 -0.852144,0.0677 -0.289748,0.01505 -0.585215,0.02274 -0.886251,0.02274 h -1.264006 v 3.79305 h 24.383524 v -3.79305 h -0.99322 c -0.31609,0 -0.62449,-0.0096 -0.925525,-0.02842 -0.301036,-0.01881 -0.594583,-0.04712 -0.880566,-0.08475 -0.285985,-0.03763 -0.564677,-0.08463 -0.835608,-0.141076 -0.270933,-0.05644 -0.534252,-0.122145 -0.790133,-0.197404 -0.240829,-0.07526 -0.470079,-0.169265 -0.68833,-0.282154 -0.218251,-0.112888 -0.425477,-0.244807 -0.621151,-0.395324 -0.195673,-0.150519 -0.379842,-0.319832 -0.552938,-0.50798 -0.173094,-0.188147 -0.33524,-0.395374 -0.485758,-0.62115 -0.135466,-0.225778 -0.253934,-0.479489 -0.355534,-0.761711 -0.1016,-0.282222 -0.185998,-0.592544 -0.253731,-0.931209 -0.06773,-0.338666 -0.118579,-0.705599 -0.152446,-1.100708 -0.03387,-0.395111 -0.05116,-0.818654 -0.05116,-1.270207 v -12.82403 l 6.86366,-7.766968 14.08855,22.035864 c 0.27093,0.436503 0.53809,0.854281 0.8015,1.253153 0.26341,0.398874 0.5234,0.779257 0.77928,1.140499 0.25588,0.361244 0.50767,0.703197 0.75603,1.026811 0.24835,0.323614 0.49297,0.628688 0.7338,0.914673 0.24083,0.270933 0.48738,0.528488 0.73949,0.773079 0.25212,0.244592 0.51019,0.47628 0.7736,0.694532 0.26341,0.21825 0.53197,0.423038 0.80667,0.614949 0.27469,0.191911 0.55531,0.370832 0.84129,0.536401 0.30104,0.16557 0.61905,0.318108 0.95395,0.457337 0.3349,0.139229 0.68646,0.265384 1.05523,0.378271 0.36877,0.112889 0.75492,0.212142 1.15755,0.29869 0.40264,0.08655 0.82182,0.159935 1.25832,0.220142 0.43651,0.06021 0.89937,0.112974 1.38855,0.15813 0.48918,0.04515 1.00481,0.08307 1.54668,0.113171 0.54185,0.0301 1.11025,0.05264 1.7048,0.0677 0.59455,0.01505 1.21519,0.02274 1.86242,0.02274 h 1.58337 l -6.35,-3.79305 h 1.35443 c 0.31609,0 0.62309,-0.0096 0.92036,-0.02842 0.29728,-0.01881 0.58506,-0.04712 0.86352,-0.08475 0.27844,-0.03763 0.54754,-0.08464 0.80718,-0.141076 0.25964,-0.05644 0.50951,-0.122144 0.75034,-0.197404 0.0262,-0.0082 0.049,-0.02187 0.0749,-0.03049 -0.0143,7.75e-4 -0.0219,0.0019 -0.0362,0.0026 -0.12156,0.0058 -0.24307,0.0078 -0.34985,0.0021 -0.10678,-0.0057 -0.19897,-0.01905 -0.262,-0.04444 -0.12606,-0.0508 -0.285,-0.08974 -0.44442,-0.132809 -0.15941,-0.04307 -0.31906,-0.0904 -0.447,-0.15813 -0.25588,-0.135465 -0.51151,-0.288003 -0.76739,-0.457336 -0.25588,-0.169333 -0.51203,-0.355423 -0.76791,-0.558622 -0.25588,-0.2032 -0.51152,-0.423359 -0.7674,-0.660425 -0.25588,-0.237066 -0.51203,-0.491296 -0.76791,-0.762227 -0.24083,-0.270933 -0.48353,-0.556794 -0.72812,-0.857829 -0.24459,-0.301037 -0.49114,-0.617123 -0.73949,-0.948263 -0.49671,-0.662279 -1.00081,-1.384616 -1.51257,-2.167309 L 107.12576,62.002934 119.22735,47.101518 c 0.34619,-0.451555 0.68674,-0.884188 1.02164,-1.298112 0.3349,-0.413925 0.66392,-0.809162 0.98754,-1.185458 0.32361,-0.376294 0.64162,-0.73362 0.95394,-1.072286 0.31233,-0.338664 0.61933,-0.658595 0.92036,-0.959631 0.31609,-0.316088 0.62833,-0.613477 0.9369,-0.891935 0.30856,-0.278459 0.61312,-0.537935 0.91415,-0.778764 0.30104,-0.240829 0.59843,-0.46291 0.89194,-0.666109 0.29351,-0.2032 0.58321,-0.387368 0.86919,-0.552938 0.28599,-0.16557 0.57761,-0.310421 0.87489,-0.434599 0.29727,-0.124177 0.60043,-0.22779 0.90898,-0.310575 0.15429,-0.04139 0.47178,-0.07753 0.79065,-0.108521 0.11736,-0.0114 0.18437,-0.01842 0.29404,-0.02842 -0.22386,-0.01038 -0.44751,-0.02119 -0.68161,-0.02119 h -1.264 v -3.79305 h -15.91428 v 3.702616 c 0.36124,0 0.69795,0.0096 1.01028,0.02842 0.31232,0.01881 0.6001,0.04712 0.86351,0.08475 0.26341,0.03763 0.50226,0.08463 0.71675,0.141076 0.21449,0.05645 0.40442,0.122145 0.56999,0.197404 0.18062,0.06021 0.33893,0.135515 0.47439,0.225826 0.13547,0.09031 0.24817,0.195845 0.33848,0.31626 0.0903,0.120415 0.15794,0.255659 0.20309,0.406177 0.0452,0.150518 0.0677,0.315988 0.0677,0.49661 0,0.135467 -0.009,0.278914 -0.0279,0.429431 -0.0188,0.150519 -0.0471,0.308303 -0.0847,0.473873 -0.0753,0.33114 -0.18796,0.692308 -0.33848,1.083655 -0.15052,0.391347 -0.34621,0.820654 -0.58704,1.28726 -0.24083,0.466606 -0.52721,0.970705 -0.85835,1.512569 -0.33114,0.541866 -0.7297,1.136127 -1.19631,1.783354 -0.4666,0.647227 -1.00093,1.34754 -1.603,2.10013 L 94.301221,71.214775 V 45.115076 c 0,-0.451555 0.01729,-0.875097 0.05116,-1.270207 0.03387,-0.39511 0.08471,-0.762042 0.152446,-1.100708 0.06773,-0.338666 0.152131,-0.648989 0.253731,-0.931209 0.1016,-0.282222 0.220068,-0.53645 0.355534,-0.762228 0.135466,-0.225776 0.286082,-0.432486 0.451652,-0.620634 0.16557,-0.188146 0.346412,-0.357461 0.542086,-0.507979 0.195673,-0.150518 0.406225,-0.282436 0.632003,-0.395325 0.225776,-0.112888 0.466555,-0.206894 0.722436,-0.282153 0.255881,-0.07526 0.51728,-0.14096 0.784448,-0.197404 0.26717,-0.05644 0.540096,-0.103447 0.818555,-0.141077 0.278459,-0.03763 0.562398,-0.06593 0.852144,-0.08475 0.289744,-0.01881 0.585214,-0.02842 0.886254,-0.02842 h 1.08365 v -3.79305 z"
           style="font-stretch:semi-condensed;font-size:90.311px;font-family:'Noto Serif';-inkscape-font-specification:'Noto Serif Semi-Condensed';fill:#0e3d5b;fill-opacity:1;stroke-width:0.264583"
           id="path6"
           inkscape:label="path6" />
        <path
           d="m 134.12876,99.4823 2.42669,-3.666406 -2.69799,-0.244659 c -0.03,-0.0027 -0.0237,-0.02103 0.01,-0.05808 0.0335,-0.03705 0.0941,-0.09033 0.17312,-0.153992 0.15796,-0.127326 3.11722,-0.653011 3.34775,-0.824235 0.23053,-0.171223 -2.26759,0.01226 -2.1101,-0.119429 0.0787,-0.06585 0.13941,-0.121664 0.1726,-0.161983 0.0332,-0.04032 0.0388,-0.06491 0.008,-0.06927 -0.0611,-0.0088 -0.21029,0.03697 -0.40825,0.111365 -0.19795,0.07439 2.06826,-1.991395 1.81121,-1.886156 -0.25706,0.105239 -2.12051,1.736554 -2.35897,1.820348 -0.23846,0.0838 -0.98725,0.555399 -1.12941,0.565462 -0.12087,0.0086 -0.72826,0.266018 -0.95678,0.278834 -0.0259,0.0089 -0.0488,0.023 -0.0749,0.03144 -0.24083,0.0776 -1.08389,7.74e-4 -1.34353,0.05898 -0.25964,0.0582 -1.83376,-0.716277 -2.1122,-0.677477 -0.27846,0.0388 -0.26425,0.346012 -0.56153,0.365407 -0.29727,0.0194 0.99195,0.718796 0.67586,0.718796 l -3.82426,-0.02224 8.81983,3.933307 z"
           style="font-stretch:semi-condensed;font-size:90.311px;font-family:'Noto Serif';-inkscape-font-specification:'Noto Serif Semi-Condensed';fill:#0e3d5b;fill-opacity:1;stroke-width:0.268667"
           id="path9"
           sodipodi:nodetypes="ccsccssscssssccssssccc" />
        <path
           d="m 126.07131,34.999931 v 3.815802 h 3.34342 c 0.61922,0 1.21079,0.01087 1.80293,0.02132 0.49815,-0.01728 1.06812,-0.03623 1.33546,-0.04938 0.42303,-0.02083 0.92134,-0.0094 1.42294,0.0072 0.50158,0.0166 1.00685,0.03847 1.4448,0.03847 l -1.99703,-3.833477 z"
           style="font-stretch:semi-condensed;font-size:90.311px;font-family:'Noto Serif';-inkscape-font-specification:'Noto Serif Semi-Condensed';fill:#0e3d5b;fill-opacity:1;stroke-width:0.431601"
           id="path8" />
        <path
           d="m 130.42563,34.999931 0.75499,3.81062 c -0.16557,0 -0.35659,-0.02174 -0.54622,-0.03824 -0.18963,-0.0165 -0.37802,-0.02793 -0.53795,-0.0072 -0.10107,0.01308 -0.31655,0.03191 -0.50488,0.04909 0.0784,0.0036 0.16163,0.0024 0.23875,0.0072 0.29727,0.01882 0.58505,0.04712 0.86351,0.08475 0.27846,0.03763 0.54754,0.08463 0.80719,0.141077 0.25964,0.05644 0.51003,0.122145 0.75086,0.197404 0.25588,0.07526 0.49858,0.169265 0.72812,0.282153 0.22954,0.112889 0.44585,0.244807 0.64905,0.395325 0.2032,0.150518 0.39313,0.319833 0.56999,0.507979 0.17686,0.188148 0.34041,0.394858 0.49093,0.620634 0.0753,0.112889 0.14602,0.233278 0.21187,0.361219 0.0659,0.127939 0.12701,0.263701 0.18345,0.406693 0.0565,0.142992 0.108,0.293608 0.15503,0.451652 0.047,0.158044 0.0895,0.323515 0.12713,0.496611 0.0753,0.34619 0.13187,0.722214 0.1695,1.128613 0.0376,0.406398 0.0563,0.842874 0.0563,1.309481 v 44.162162 c 0,0.451553 -0.0187,0.875096 -0.0563,1.270207 -0.0376,0.395109 -0.0942,0.762042 -0.1695,1.100708 -0.0753,0.338665 -0.16927,0.648987 -0.28216,0.931209 -0.0564,0.141111 -0.1176,0.275043 -0.18345,0.402043 -0.0658,0.126998 -0.13661,0.246779 -0.21187,0.359668 -0.15052,0.225776 -0.31215,0.433003 -0.48524,0.62115 -0.1731,0.188148 -0.35778,0.357461 -0.55346,0.50798 -0.19567,0.150517 -0.40238,0.282436 -0.62063,0.395324 -0.19453,0.100621 -0.40141,0.180951 -0.61392,0.251665 0.22852,-0.01243 0.45843,-0.03563 0.5793,-0.04393 0.14216,-0.0098 0.35168,-0.06808 0.59014,-0.149345 0.23846,-0.08127 3.7197,3.24394 3.97676,3.141877 0.25705,-0.102063 -2.7102,-3.631448 -2.51225,-3.7036 0.19796,-0.07215 0.87558,1.015982 0.93673,1.024449 0.0306,0.0042 -0.50358,-1.104373 -0.53648,-1.065273 -0.0332,0.0391 -0.0939,0.09324 -0.1726,0.157096 -0.15749,0.127718 1.75823,-2.077862 1.5277,-1.911805 -0.23053,0.166057 -5.50863,3.404552 -5.66659,3.528036 -0.079,0.06174 2.76166,-0.587625 2.72812,-0.551697 -0.0335,0.03593 -0.0399,0.05633 -0.01,0.05633 l -4.06438,1.531508 4.33568,2.261542 h 38.49171 l 0.54209,-19.416903 h -4.24471 l -0.90278,6.77323 c -0.0452,0.361244 -0.10177,0.716647 -0.1695,1.066602 -0.0677,0.349953 -0.14689,0.694346 -0.2372,1.033012 -0.0903,0.338664 -0.192,0.671528 -0.30489,0.998905 -0.11289,0.327377 -0.23712,0.649228 -0.37258,0.965316 -0.12042,0.301035 -0.25758,0.588817 -0.41187,0.863513 -0.15428,0.274696 -0.32551,0.53661 -0.51366,0.784965 -0.18815,0.248355 -0.39293,0.483369 -0.61495,0.705383 -0.22201,0.222015 -0.46139,0.430645 -0.71727,0.626319 -0.12794,0.09031 -0.26056,0.175226 -0.39791,0.254248 -0.13734,0.07902 -0.27905,0.152408 -0.42581,0.220141 -0.14675,0.06773 -0.29859,0.129591 -0.45475,0.186035 -0.15616,0.05645 -0.31709,0.10729 -0.48266,0.152446 -0.33114,0.09031 -0.68078,0.157933 -1.04955,0.203088 -0.36877,0.04516 -0.75632,0.0677 -1.16272,0.0677 H 144.35346 V 44.843774 c 0,-0.436501 0.0168,-0.844673 0.0506,-1.224731 0.0339,-0.380058 0.0847,-0.732135 0.15244,-1.05575 0.0677,-0.323613 0.15265,-0.618564 0.25425,-0.885734 0.0508,-0.133583 0.10558,-0.260348 0.16485,-0.379821 0.0593,-0.119474 0.12295,-0.232086 0.19068,-0.337447 0.15052,-0.225778 0.31215,-0.430565 0.48524,-0.61495 0.1731,-0.184385 0.35727,-0.347934 0.55294,-0.490926 0.19568,-0.142992 0.4029,-0.265303 0.62115,-0.366903 0.21825,-0.1016 0.4475,-0.182672 0.68833,-0.242879 0.25588,-0.07526 0.51972,-0.14096 0.79065,-0.197404 0.27094,-0.05644 0.54911,-0.103447 0.83509,-0.141077 0.28599,-0.03763 0.57953,-0.06593 0.88057,-0.08475 0.30104,-0.01881 0.60944,-0.02842 0.92553,-0.02842 h 1.35495 v -3.79305 z"
           style="font-stretch:semi-condensed;font-size:90.311px;font-family:'Noto Serif';-inkscape-font-specification:'Noto Serif Semi-Condensed';fill:#0e3d5b;fill-opacity:1;stroke-width:0.264583"
           id="path7"
           sodipodi:nodetypes="ccssccsscsssccccccssssccssssccssscccssssccccccssscssscsssssscsccsscssscssssccc" />
      </g>
    </g>
  </g>
</svg>
