<?xml version="1.0" encoding="UTF-8" standalone="no"?>
<svg
   width="120"
   zoomAndPan="magnify"
   viewBox="0 0 90.000024 90.000024"
   height="120"
   preserveAspectRatio="xMidYMid"
   version="1.0"
   id="svg72"
   sodipodi:docname="No Text Logo - Light BG.svg"
   inkscape:version="1.3 (0e150ed6c4, 2023-07-21)"
   xmlns:inkscape="http://www.inkscape.org/namespaces/inkscape"
   xmlns:sodipodi="http://sodipodi.sourceforge.net/DTD/sodipodi-0.dtd"
   xmlns="http://www.w3.org/2000/svg"
   xmlns:svg="http://www.w3.org/2000/svg">
  <sodipodi:namedview
     id="namedview72"
     pagecolor="#ffffff"
     bordercolor="#000000"
     borderopacity="0.25"
     inkscape:showpageshadow="2"
     inkscape:pageopacity="0.0"
     inkscape:pagecheckerboard="0"
     inkscape:deskcolor="#d1d1d1"
     inkscape:zoom="1.7210979"
     inkscape:cx="4.3576835"
     inkscape:cy="14.2351"
     inkscape:window-width="2560"
     inkscape:window-height="1494"
     inkscape:window-x="-11"
     inkscape:window-y="-11"
     inkscape:window-maximized="1"
     inkscape:current-layer="svg72" />
  <defs
     id="defs9">
    <clipPath
       id="b83081eb72">
      <path
         d="m 160,124 h 40 v 54 h -40 z m 0,0"
         clip-rule="nonzero"
         id="path1" />
    </clipPath>
    <clipPath
       id="8272e82657">
      <path
         d="m 187.89453,124.60547 12.32813,7.4414 -27.63672,45.79297 -12.33203,-7.4414 z m 0,0"
         clip-rule="nonzero"
         id="path2" />
    </clipPath>
    <clipPath
       id="912b945387">
      <path
         d="m 187.89453,124.60547 12.07422,7.28515 -27.28906,45.21875 -12.07422,-7.28906 z m 0,0"
         clip-rule="nonzero"
         id="path3" />
    </clipPath>
    <clipPath
       id="b487080579">
      <path
         d="m 161,124 h 32 v 35 h -32 z m 0,0"
         clip-rule="nonzero"
         id="path4" />
    </clipPath>
    <clipPath
       id="4a22398c33">
      <path
         d="m 176.32812,124.60547 17.02735,10.27734 -14.53125,24.07031 -17.02344,-10.27343 z m 0,0"
         clip-rule="nonzero"
         id="path5" />
    </clipPath>
    <clipPath
       id="1cd17d2607">
      <path
         d="m 176.32812,124.60547 16.45313,9.92969 -14.46484,23.96484 -16.45313,-9.92969 z m 0,0"
         clip-rule="nonzero"
         id="path6" />
    </clipPath>
    <clipPath
       id="a812a3649f">
      <path
         d="m 181,133 h 26 v 26 h -26 z m 0,0"
         clip-rule="nonzero"
         id="path7" />
    </clipPath>
    <clipPath
       id="ec9be1f5a6">
      <path
         d="m 190.14844,133.59375 17.02343,10.27734 -9.21093,15.26563 -17.02735,-10.27735 z m 0,0"
         clip-rule="nonzero"
         id="path8" />
    </clipPath>
    <clipPath
       id="aa9e947918">
      <path
         d="m 190.14844,133.59375 16.45312,9.93359 -9.03906,14.97266 -16.45313,-9.92969 z m 0,0"
         clip-rule="nonzero"
         id="path9" />
    </clipPath>
  </defs>
  <g
     id="g73"
     transform="translate(-44.669086,-11.004528)">
    <g
       fill="#3d3b3a"
       fill-opacity="1"
       id="g42"
       transform="translate(-93.74024,-88.43499)">
      <g
         transform="translate(143.82685,149.92864)"
         id="g41">
        <g
           id="g40">
          <path
             d="m 51.03125,-0.96875 c 0.15625,0 0.234375,0.164062 0.234375,0.484375 C 51.265625,-0.160156 51.1875,0 51.03125,0 h -9 c -1.875,0 -3,-0.101562 -3.375,-0.3125 -0.375,-0.21875 -1.355469,-1.453125 -2.9375,-3.703125 -1.585938,-2.25 -3.5,-4.796875 -5.75,-7.640625 L 17.203125,-27.484375 14.390625,-24.75 v 18.234375 c 0,1.667969 0.171875,2.875 0.515625,3.625 0.34375,0.75 1,1.261719 1.96875,1.53125 0.96875,0.261719 2.519531,0.390625 4.65625,0.390625 0.113281,0 0.171875,0.164062 0.171875,0.484375 C 21.703125,-0.160156 21.644531,0 21.53125,0 19.925781,0 18.640625,-0.0234375 17.671875,-0.078125 L 12.21875,-0.15625 6.90625,-0.078125 C 5.945312,-0.0234375 4.609375,0 2.890625,0 2.785156,0 2.734375,-0.160156 2.734375,-0.484375 c 0,-0.320313 0.050781,-0.484375 0.15625,-0.484375 2.09375,0 3.632813,-0.128906 4.625,-0.390625 0.988281,-0.269531 1.671875,-0.789063 2.046875,-1.5625 0.375,-0.78125 0.5625,-1.976563 0.5625,-3.59375 V -43.71875 c 0,-1.601562 -0.179688,-2.78125 -0.53125,-3.53125 -0.34375,-0.75 -1.011719,-1.269531 -2,-1.5625 -0.992188,-0.300781 -2.53125,-0.453125 -4.625,-0.453125 -0.105469,0 -0.15625,-0.15625 -0.15625,-0.46875 0,-0.320313 0.050781,-0.484375 0.15625,-0.484375 l 3.9375,0.07813 c 2.25,0.105469 4.019531,0.15625 5.3125,0.15625 1.445312,0 3.296875,-0.05078 5.546875,-0.15625 l 3.765625,-0.07813 c 0.113281,0 0.171875,0.164062 0.171875,0.484375 0,0.3125 -0.05859,0.46875 -0.171875,0.46875 -2.085938,0 -3.625,0.164063 -4.625,0.484375 -0.992188,0.324219 -1.65625,0.875 -2,1.65625 -0.34375,0.773438 -0.515625,1.960938 -0.515625,3.5625 v 16.96875 L 32.0625,-44.203125 c 1.820312,-1.820313 2.734375,-3.078125 2.734375,-3.765625 0,-0.488281 -0.367187,-0.828125 -1.09375,-1.015625 -0.71875,-0.1875 -1.90625,-0.28125 -3.5625,-0.28125 -0.117187,0 -0.171875,-0.15625 -0.171875,-0.46875 0,-0.320313 0.05469,-0.484375 0.171875,-0.484375 l 3.375,0.07813 c 2.03125,0.105469 3.929687,0.15625 5.703125,0.15625 1.65625,0 3.394531,-0.05078 5.21875,-0.15625 l 2.8125,-0.07813 c 0.164062,0 0.25,0.164062 0.25,0.484375 0,0.3125 -0.08594,0.46875 -0.25,0.46875 -2.199219,0 -4.464844,0.417969 -6.796875,1.25 -2.324219,0.835937 -4.507813,2.265625 -6.546875,4.296875 L 20.25,-30.375 31.734375,-15.90625 c 4.070313,5.085938 7.179687,8.671875 9.328125,10.765625 2.144531,2.085937 3.78125,3.304687 4.90625,3.65625 1.125,0.34375 2.8125,0.515625 5.0625,0.515625 z m 0,0"
             id="path39" />
        </g>
      </g>
    </g>
    <g
       fill="#3d3b3a"
       fill-opacity="1"
       id="g45"
       transform="translate(-93.74024,-88.43499)">
      <g
         transform="translate(178.4762,189.16917)"
         id="g44">
        <g
           id="g43">
          <path
             d="m 14.296875,-6.828125 c 0,1.554687 0.171875,2.695313 0.515625,3.421875 0.351562,0.71875 1,1.214844 1.9375,1.484375 0.9375,0.261719 2.425781,0.390625 4.46875,0.390625 H 31.5 c 5.300781,0 8.4375,-3.398438 9.40625,-10.203125 0,-0.15625 0.144531,-0.21875 0.4375,-0.1875 0.289062,0.02344 0.4375,0.109375 0.4375,0.265625 -0.480469,4.242188 -0.71875,7.726562 -0.71875,10.453125 0,0.429687 -0.08594,0.734375 -0.25,0.921875 C 40.65625,-0.09375 40.335938,0 39.859375,0 H 2.890625 c -0.105469,0 -0.15625,-0.160156 -0.15625,-0.484375 0,-0.320313 0.050781,-0.484375 0.15625,-0.484375 2.09375,0 3.632813,-0.128906 4.625,-0.390625 0.988281,-0.269531 1.65625,-0.789063 2,-1.5625 0.351563,-0.78125 0.53125,-1.976563 0.53125,-3.59375 V -43.71875 c 0,-1.601562 -0.179687,-2.78125 -0.53125,-3.53125 -0.34375,-0.75 -1.011719,-1.269531 -2,-1.5625 -0.992187,-0.300781 -2.53125,-0.453125 -4.625,-0.453125 -0.105469,0 -0.15625,-0.15625 -0.15625,-0.46875 0,-0.320313 0.050781,-0.484375 0.15625,-0.484375 l 3.9375,0.07813 c 2.25,0.105469 4.019531,0.15625 5.3125,0.15625 1.4375,0 3.28125,-0.05078 5.53125,-0.15625 l 3.78125,-0.07813 c 0.101563,0 0.15625,0.164062 0.15625,0.484375 0,0.3125 -0.05469,0.46875 -0.15625,0.46875 -2.085937,0 -3.625,0.152344 -4.625,0.453125 -0.992187,0.292969 -1.664063,0.828125 -2.015625,1.609375 -0.34375,0.773437 -0.515625,1.960937 -0.515625,3.5625 z m 0,0"
             id="path42" />
        </g>
      </g>
    </g>
    <g
       clip-path="url(#b83081eb72)"
       id="g48"
       transform="translate(-93.74024,-88.43499)">
      <g
         clip-path="url(#8272e82657)"
         id="g47">
        <g
           clip-path="url(#912b945387)"
           id="g46">
          <path
             fill="#ffffff"
             d="m 187.89453,124.60547 12.32813,7.4414 -27.28516,45.20704 -12.32813,-7.44141 z m 0,0"
             fill-opacity="1"
             fill-rule="nonzero"
             id="path45" />
        </g>
      </g>
    </g>
    <g
       clip-path="url(#b487080579)"
       id="g51"
       transform="translate(-93.74024,-88.43499)">
      <g
         clip-path="url(#4a22398c33)"
         id="g50">
        <g
           clip-path="url(#1cd17d2607)"
           id="g49">
          <path
             fill="#ffffff"
             d="m 176.32812,124.60547 16.4375,9.92187 -14.52734,24.07032 -16.4375,-9.91797 z m 0,0"
             fill-opacity="1"
             fill-rule="nonzero"
             id="path48" />
        </g>
      </g>
    </g>
    <g
       clip-path="url(#a812a3649f)"
       id="g54"
       transform="translate(-93.74024,-88.43499)">
      <g
         clip-path="url(#ec9be1f5a6)"
         id="g53">
        <g
           clip-path="url(#aa9e947918)"
           id="g52">
          <path
             fill="#ffffff"
             d="m 190.14844,133.59375 16.4375,9.92187 -9.21094,15.26563 -16.44141,-9.92188 z m 0,0"
             fill-opacity="1"
             fill-rule="nonzero"
             id="path51" />
        </g>
      </g>
    </g>
    <path
       stroke-linecap="butt"
       fill="none"
       stroke-linejoin="miter"
       d="M 62.4785,95.09236 112.91598,23.27592"
       stroke="#3d3b3a"
       stroke-width="1.5008"
       stroke-opacity="1"
       stroke-miterlimit="4"
       id="path54" />
  </g>
</svg>
