<?xml version="1.0" encoding="UTF-8" standalone="no"?>
<svg
   width="120"
   zoomAndPan="magnify"
   viewBox="0 0 90.000024 90.000024"
   height="120"
   preserveAspectRatio="xMidYMid"
   version="1.0"
   id="svg72"
   sodipodi:docname="No Text Logo - Light BG.svg"
   inkscape:version="1.3 (0e150ed6c4, 2023-07-21)"
   inkscape:export-filename="No Text Logo - Light BG Normal.png"
   inkscape:export-xdpi="96"
   inkscape:export-ydpi="96"
   xmlns:inkscape="http://www.inkscape.org/namespaces/inkscape"
   xmlns:sodipodi="http://sodipodi.sourceforge.net/DTD/sodipodi-0.dtd"
   xmlns="http://www.w3.org/2000/svg"
   xmlns:svg="http://www.w3.org/2000/svg">
  <sodipodi:namedview
     id="namedview72"
     pagecolor="#ffffff"
     bordercolor="#000000"
     borderopacity="0.25"
     inkscape:showpageshadow="2"
     inkscape:pageopacity="0.0"
     inkscape:pagecheckerboard="0"
     inkscape:deskcolor="#d1d1d1"
     inkscape:zoom="3.4421958"
     inkscape:cx="43.141067"
     inkscape:cy="42.850555"
     inkscape:window-width="2560"
     inkscape:window-height="1494"
     inkscape:window-x="-11"
     inkscape:window-y="-11"
     inkscape:window-maximized="1"
     inkscape:current-layer="svg72" />
  <defs
     id="defs9">
    <g
       id="g1" />
    <clipPath
       id="b83081eb72">
      <path
         d="m 160,124 h 40 v 54 h -40 z m 0,0"
         clip-rule="nonzero"
         id="path1" />
    </clipPath>
    <clipPath
       id="8272e82657">
      <path
         d="m 187.89453,124.60547 12.32813,7.4414 -27.63672,45.79297 -12.33203,-7.4414 z m 0,0"
         clip-rule="nonzero"
         id="path2" />
    </clipPath>
    <clipPath
       id="912b945387">
      <path
         d="m 187.89453,124.60547 12.07422,7.28515 -27.28906,45.21875 -12.07422,-7.28906 z m 0,0"
         clip-rule="nonzero"
         id="path3" />
    </clipPath>
    <clipPath
       id="b487080579">
      <path
         d="m 161,124 h 32 v 35 h -32 z m 0,0"
         clip-rule="nonzero"
         id="path4" />
    </clipPath>
    <clipPath
       id="4a22398c33">
      <path
         d="m 176.32812,124.60547 17.02735,10.27734 -14.53125,24.07031 -17.02344,-10.27343 z m 0,0"
         clip-rule="nonzero"
         id="path5" />
    </clipPath>
    <clipPath
       id="1cd17d2607">
      <path
         d="m 176.32812,124.60547 16.45313,9.92969 -14.46484,23.96484 -16.45313,-9.92969 z m 0,0"
         clip-rule="nonzero"
         id="path6" />
    </clipPath>
    <clipPath
       id="a812a3649f">
      <path
         d="m 181,133 h 26 v 26 h -26 z m 0,0"
         clip-rule="nonzero"
         id="path7" />
    </clipPath>
    <clipPath
       id="ec9be1f5a6">
      <path
         d="m 190.14844,133.59375 17.02343,10.27734 -9.21093,15.26563 -17.02735,-10.27735 z m 0,0"
         clip-rule="nonzero"
         id="path8" />
    </clipPath>
    <clipPath
       id="aa9e947918">
      <path
         d="m 190.14844,133.59375 16.45312,9.93359 -9.03906,14.97266 -16.45313,-9.92969 z m 0,0"
         clip-rule="nonzero"
         id="path9" />
    </clipPath>
  </defs>
  <path
     d="m 54.363296,56.564956 -4.249513,-2.564942 v 29.213387 c 0,0.404296 -0.01135,0.78357 -0.03369,1.135254 -0.02234,0.351685 -0.05518,0.67627 -0.09961,0.975587 -0.04443,0.299316 -0.100708,0.57312 -0.166992,0.820312 -0.06628,0.247192 -0.143555,0.468262 -0.231446,0.663575 -0.04297,0.09668 -0.09046,0.189567 -0.143554,0.27832 -0.05309,0.08875 -0.111115,0.172577 -0.174317,0.253418 -0.0632,0.08084 -0.131782,0.158501 -0.205078,0.231445 -0.0733,0.07294 -0.151001,0.14148 -0.234375,0.206543 -0.08337,0.06506 -0.1717,0.125908 -0.265137,0.183106 -0.09344,0.0572 -0.192413,0.110321 -0.295898,0.159668 -0.20697,0.09869 -0.434083,0.181641 -0.681153,0.249023 -0.248046,0.06543 -0.530152,0.122498 -0.84668,0.171387 -0.316528,0.04889 -0.667969,0.09058 -1.053223,0.123047 -0.385253,0.03247 -0.804078,0.05707 -1.258301,0.07324 -0.454223,0.01617 -0.942872,0.02344 -1.466309,0.02344 -0.02637,0 -0.04926,0.01038 -0.06885,0.03076 -0.01959,0.02039 -0.03687,0.05029 -0.0498,0.09082 -0.02588,0.08105 -0.03809,0.203125 -0.03809,0.363281 0,0.16211 0.01221,0.282715 0.03809,0.363282 0.01294,0.04028 0.03021,0.07074 0.0498,0.09082 0.01959,0.02008 0.04248,0.0293 0.06885,0.0293 h 36.968272 c 0.11914,0 0.228638,-0.0059 0.328125,-0.01758 0.09949,-0.01172 0.188477,-0.0293 0.268066,-0.05273 0.07959,-0.02344 0.150025,-0.05273 0.209473,-0.08789 0.05945,-0.03516 0.108887,-0.07617 0.147949,-0.123047 0.04102,-0.04687 0.07727,-0.100952 0.108399,-0.162598 0.03113,-0.06164 0.05664,-0.129883 0.07764,-0.206543 0.021,-0.07666 0.03625,-0.161499 0.04687,-0.253418 0.01062,-0.09192 0.01611,-0.191407 0.01611,-0.298828 0,-0.68164 0.01556,-1.410646 0.04541,-2.187013 0.02985,-0.776366 0.07495,-1.600099 0.134766,-2.471192 0.05981,-0.871092 0.134216,-1.789552 0.224121,-2.755371 0.08991,-0.96582 0.194824,-1.979006 0.314941,-3.039552 0,-0.03906 -0.0094,-0.07361 -0.02783,-0.104004 -0.01843,-0.03039 -0.04541,-0.05713 -0.08203,-0.0791 -0.03662,-0.02197 -0.08313,-0.03894 -0.137695,-0.05273 -0.05457,-0.01379 -0.118165,-0.02344 -0.19043,-0.0293 -0.07324,-0.0078 -0.137146,-0.0098 -0.191895,-0.0059 -0.05475,0.0039 -0.09985,0.01367 -0.13623,0.0293 -0.03638,0.01563 -0.0639,0.03711 -0.08203,0.06445 -0.01813,0.02734 -0.02637,0.06055 -0.02637,0.09961 -0.06055,0.425293 -0.130524,0.837646 -0.208007,1.236329 -0.07748,0.398683 -0.163396,0.783684 -0.257813,1.155762 -0.09442,0.372077 -0.196267,0.731184 -0.307617,1.07666 -0.11135,0.345476 -0.232071,0.677216 -0.360352,0.996094 -0.12828,0.318878 -0.264947,0.624709 -0.410156,0.916993 -0.145209,0.292283 -0.29929,0.570732 -0.461426,0.836426 -0.162136,0.265693 -0.33217,0.518217 -0.511231,0.757324 -0.179061,0.239107 -0.366516,0.464234 -0.5625,0.676758 -0.195984,0.212524 -0.400865,0.411711 -0.61377,0.597656 -0.212904,0.185946 -0.43375,0.359185 -0.663574,0.518555 -0.229824,0.159371 -0.468103,0.30519 -0.714844,0.437989 -0.246741,0.132799 -0.502457,0.252655 -0.766113,0.358887 -0.263657,0.106231 -0.535349,0.198652 -0.815919,0.27832 -0.280569,0.07967 -0.569706,0.146111 -0.867187,0.199219 -0.297482,0.05311 -0.604067,0.09357 -0.918458,0.120117 -0.31439,0.02655 -0.636963,0.03955 -0.968262,0.03955 H 61.286149 c -0.510742,0 -0.986756,-0.0073 -1.428223,-0.02344 -0.441467,-0.01617 -0.849366,-0.04077 -1.22168,-0.07324 -0.372314,-0.03247 -0.708924,-0.07416 -1.012207,-0.123047 -0.303284,-0.04889 -0.572755,-0.105957 -0.807129,-0.171387 -0.234375,-0.06738 -0.450806,-0.148987 -0.648926,-0.244629 -0.19812,-0.09564 -0.377442,-0.204346 -0.539063,-0.328125 -0.08081,-0.06189 -0.156876,-0.127388 -0.228516,-0.196289 -0.07164,-0.0689 -0.139709,-0.1409 -0.202148,-0.216797 -0.06244,-0.0759 -0.119644,-0.155891 -0.172852,-0.238769 -0.05321,-0.08288 -0.102539,-0.169434 -0.146484,-0.259278 -0.08594,-0.18164 -0.161133,-0.38916 -0.225586,-0.622559 -0.06445,-0.233398 -0.118164,-0.492676 -0.161133,-0.777832 -0.04297,-0.285156 -0.0752,-0.596192 -0.09668,-0.933106 -0.02148,-0.336913 -0.03223,-0.699707 -0.03223,-1.088379 z"
     style=""
     id="path11"
     inkscape:label="L" />
  <path
     stroke-linecap="butt"
     fill="none"
     stroke-linejoin="miter"
     d="m 17.809414,84.087832 50.43748,-71.81644"
     stroke="#3d3b3a"
     stroke-width="1.5008"
     stroke-opacity="1"
     stroke-miterlimit="4"
     id="path54"
     inkscape:label="Line" />
  <path
     d="m 8.3862327,0.27099617 c -0.026367,0 -0.049255,0.008911 -0.068848,0.0292969 -0.019592,0.0203857 -0.0354,0.0517579 -0.04834,0.0922852 -0.025879,0.0810545 -0.039551,0.20166016 -0.039551,0.3618165 0,0.15624985 0.013672,0.27343767 0.039551,0.35156257 0.012939,0.039063 0.028748,0.068359 0.04834,0.087891 0.019592,0.019531 0.04248,0.029297 0.068848,0.029297 0.523437,0 1.0120859,0.010315 1.466309,0.029297 0.4542233,0.018982 0.8745123,0.047119 1.2597663,0.084961 0.385253,0.037842 0.73523,0.08551 1.051758,0.1420899 0.316528,0.05658 0.598633,0.1225588 0.84668,0.1977539 0.24707,0.073242 0.474182,0.1605837 0.681152,0.2622071 0.20697,0.1016235 0.394288,0.2170413 0.561035,0.3471681 0.166748,0.1301268 0.31305,0.2748416 0.439454,0.4335939 0.126403,0.1587522 0.233398,0.331055 0.319336,0.5185548 0.08789,0.1874998 0.165161,0.4019779 0.231445,0.6430666 0.06628,0.2410886 0.121094,0.5097661 0.165528,0.8041994 0.04443,0.2944333 0.07727,0.6148688 0.09961,0.9624026 0.02234,0.3475338 0.03369,0.7216805 0.03369,1.1220706 V 43.973156 c 0,0.404297 -0.01172,0.782105 -0.03516,1.13379 -0.02344,0.351684 -0.05859,0.677735 -0.105469,0.977051 -0.04687,0.299316 -0.105469,0.571655 -0.175781,0.818848 -0.07031,0.247192 -0.152344,0.469726 -0.246094,0.665039 -0.09375,0.193359 -0.206116,0.370056 -0.338379,0.531738 -0.132263,0.161682 -0.283447,0.307862 -0.454101,0.437989 -0.170655,0.130126 -0.360902,0.244079 -0.569825,0.342773 -0.208923,0.09869 -0.437012,0.181641 -0.684082,0.249024 -0.248047,0.06543 -0.530152,0.122497 -0.84668,0.171386 -0.316528,0.04889 -0.667969,0.09058 -1.053223,0.123047 -0.385253,0.03247 -0.804078,0.0556 -1.258301,0.07178 -0.4542233,0.01617 -0.9428721,0.0249 -1.466309,0.0249 -0.026367,0 -0.049255,0.01038 -0.068848,0.03076 -0.019592,0.02039 -0.036865,0.05029 -0.049805,0.09082 -0.025879,0.08105 -0.038086,0.203125 -0.038086,0.363281 0,0.16211 0.012207,0.282715 0.038086,0.363282 0.012939,0.04028 0.030212,0.07074 0.049805,0.09082 0.019592,0.02008 0.04248,0.0293 0.068848,0.0293 0.8593741,0 1.6220716,-0.0049 2.291016,-0.01758 0.668945,-0.0127 1.243653,-0.03271 1.724122,-0.06006 l 5.312989,-0.07764 5.45215,0.07764 c 0.484375,0.02734 1.04883,0.04736 1.691895,0.06006 0.195528,0.0039 0.448922,0.0032 0.65918,0.0059 l -1.861817,-1.123535 c -0.147578,-0.01786 -0.315384,-0.03189 -0.449707,-0.05273 -0.315002,-0.04889 -0.594239,-0.105957 -0.836426,-0.171386 -0.242187,-0.06738 -0.464844,-0.149964 -0.667969,-0.247559 -0.203125,-0.0976 -0.386719,-0.209229 -0.550781,-0.336914 -0.164063,-0.127686 -0.308594,-0.271546 -0.433594,-0.4292 -0.125,-0.157653 -0.230469,-0.32959 -0.316406,-0.517089 -0.08594,-0.1875 -0.161133,-0.404237 -0.225586,-0.648926 -0.06445,-0.24469 -0.118165,-0.516847 -0.161133,-0.818848 -0.04297,-0.302002 -0.0752,-0.633729 -0.09668,-0.993165 -0.02148,-0.359435 -0.03223,-0.747559 -0.03223,-1.164551 v -18.23438 l 2.812501,-2.733399 9.49805,11.774417 L 34.359384,31.06495 25.666999,20.113775 39.323741,6.7705096 c 0.254882,-0.253906 0.512581,-0.4987644 0.771973,-0.7338869 0.259391,-0.2351225 0.519806,-0.4603886 0.783691,-0.676758 0.263886,-0.2163694 0.531442,-0.423447 0.799805,-0.6210939 0.268364,-0.1976469 0.538697,-0.3864749 0.811524,-0.5654298 0.272827,-0.178955 0.547432,-0.3480075 0.824707,-0.508301 0.277275,-0.1602934 0.556184,-0.3109744 0.837891,-0.4526368 0.281708,-0.1416624 0.566414,-0.2739108 0.852539,-0.3969728 0.286125,-0.1230619 0.573731,-0.2368166 0.864258,-0.3413086 0.583008,-0.2080076 1.162599,-0.3901981 1.737306,-0.5463869 0.574706,-0.1561888 1.144532,-0.2868654 1.710938,-0.3911134 0.566405,-0.104248 1.129395,-0.18219 1.6875,-0.2343751 0.279052,-0.026093 0.556519,-0.04554 0.833496,-0.058594 0.276978,-0.013054 0.552735,-0.020508 0.827637,-0.020508 0.04102,0 0.07727,-0.00977 0.108399,-0.029297 0.03113,-0.019531 0.0581,-0.048828 0.0791,-0.087891 0.021,-0.039062 0.03625,-0.087891 0.04687,-0.14648439 0.01062,-0.0585937 0.01611,-0.12695326 0.01611,-0.20507818 0,-0.0800782 -0.0055,-0.15051279 -0.01611,-0.21093755 -0.01062,-0.0604248 -0.02588,-0.11035168 -0.04687,-0.15087895 -0.021,-0.0405273 -0.04797,-0.0718995 -0.0791,-0.0922852 -0.03113,-0.0203857 -0.06738,-0.0292969 -0.108399,-0.0292969 l -2.812501,0.0776367 c -0.912108,0.0527349 -1.802247,0.0913088 -2.671875,0.11718753 -0.869628,0.0258787 -1.717775,0.0395508 -2.545899,0.0395508 -0.886718,0 -1.805178,-0.0136719 -2.755372,-0.0395508 -0.950194,-0.0258789 -1.933107,-0.0644531 -2.948731,-0.11718753 l -3.375001,-0.0776367 c -0.0293,0 -0.05457,0.008911 -0.07617,0.0292969 -0.02161,0.0203857 -0.03857,0.0517579 -0.05273,0.0922852 -0.02832,0.0810545 -0.04248,0.20166016 -0.04248,0.3618165 0,0.15624985 0.01416,0.27343767 0.04248,0.35156257 0.01416,0.039063 0.03113,0.068359 0.05273,0.087891 0.02161,0.019531 0.04687,0.029297 0.07617,0.029297 0.414062,0 0.798828,0.00586 1.154297,0.017578 0.355468,0.011719 0.681641,0.029297 0.978516,0.052734 0.296874,0.023437 0.564453,0.052734 0.802734,0.087891 0.238281,0.035156 0.447266,0.076172 0.626954,0.1230469 0.18164,0.046875 0.340942,0.1040651 0.477539,0.169922 0.136596,0.065857 0.251465,0.1408692 0.342773,0.225586 0.09131,0.084717 0.159302,0.1792604 0.205079,0.2827149 0.04578,0.1034544 0.06885,0.2163088 0.06885,0.338379 0,0.085937 -0.01393,0.1804353 -0.04248,0.2841797 -0.02855,0.1037444 -0.07184,0.2153933 -0.128907,0.3369142 -0.05707,0.1215208 -0.128311,0.2533114 -0.213867,0.3925782 -0.08556,0.1392668 -0.184814,0.2868655 -0.298828,0.4438478 -0.228027,0.3139645 -0.513795,0.6627204 -0.855469,1.0473635 -0.341674,0.3846432 -0.740235,0.8046882 -1.195313,1.259766 L 19.807622,23.896002 V 6.9272479 c 0,-0.4003901 0.01074,-0.774903 0.03223,-1.1235354 0.02148,-0.3486324 0.05371,-0.6713873 0.09668,-0.968262 0.04297,-0.2968747 0.09668,-0.5678715 0.161133,-0.8129885 0.06445,-0.245117 0.139648,-0.4643557 0.225586,-0.657715 0.08594,-0.1953123 0.191772,-0.3768924 0.317871,-0.5434572 0.126098,-0.1665647 0.272949,-0.3190921 0.439453,-0.4570314 0.166504,-0.1379393 0.353882,-0.2611696 0.561035,-0.3706055 0.207153,-0.109436 0.434571,-0.20459 0.682618,-0.2856446 0.249999,-0.080078 0.53357,-0.1505129 0.851074,-0.2109376 0.317505,-0.060425 0.66797,-0.1103516 1.053223,-0.1508789 0.385254,-0.040527 0.805055,-0.0719 1.258301,-0.092285 0.453247,-0.020386 0.940431,-0.030762 1.461915,-0.030762 0.02832,0 0.05328,-0.00977 0.07471,-0.029297 0.02142,-0.019531 0.0398,-0.048828 0.0542,-0.087891 0.02881,-0.078125 0.04248,-0.19531272 0.04248,-0.35156257 0,-0.16015634 -0.01367,-0.28076196 -0.04248,-0.3618165 -0.0144,-0.0405273 -0.03278,-0.0718995 -0.0542,-0.0922852 -0.02142,-0.0203857 -0.04639,-0.0292969 -0.07471,-0.0292969 l -3.766115,0.0776367 c -1.124999,0.0527349 -2.149904,0.0913088 -3.074707,0.11718753 -0.924804,0.0258787 -1.748537,0.0395508 -2.471193,0.0395508 -0.646483,0 -1.413087,-0.0136719 -2.29834,-0.0395508 -0.885253,-0.0258789 -1.88965,-0.0644531 -3.014649,-0.11718753 z"
     id="path10"
     inkscape:label="K" />
</svg>
